<svg width="528" height="560" viewBox="0 0 528 560" fill="none" xmlns="http://www.w3.org/2000/svg">
<circle cx="280" cy="280" r="279.041" transform="matrix(-1 0 0 1 543 0)" stroke="white" stroke-opacity="0.25" stroke-width="1.91781"/>
<path d="M174.309 17.4525C119.385 36.0063 71.663 71.3176 37.8603 118.416C4.05769 165.514 -14.1233 222.027 -14.1233 280" stroke="url(#paint0_linear_6_244)" stroke-width="5.75342" stroke-linecap="round"/>
<circle cx="263" cy="280" r="145.5" stroke="white" stroke-opacity="0.25"/>
<path d="M309.246 143.1C337.885 152.775 362.769 171.187 380.394 195.745C398.02 220.304 407.5 249.771 407.5 280" stroke="url(#paint1_linear_6_244)" stroke-width="3" stroke-linecap="round"/>
<circle cx="263" cy="280" r="179.384" transform="rotate(180 263 280)" stroke="white" stroke-opacity="0.25" stroke-width="1.23288"/>
<path d="M205.984 448.781C170.676 436.853 139.998 414.153 118.267 383.876C96.5371 353.598 84.8493 317.268 84.8493 280" stroke="url(#paint2_linear_6_244)" stroke-width="3.69863" stroke-linecap="round"/>
<circle cx="220" cy="220" r="219.247" transform="matrix(-1 0 0 1 483 60)" stroke="white" stroke-opacity="0.25" stroke-width="1.50685"/>
<path d="M193.314 73.7127C150.16 88.2907 112.664 116.035 86.1046 153.041C59.5453 190.047 45.2603 234.45 45.2603 280" stroke="url(#paint3_linear_6_244)" stroke-width="4.52055" stroke-linecap="round"/>
<rect x="28.7506" y="63.8666" width="72" height="72" rx="36" transform="rotate(-39.313 28.7506 63.8666)" fill="url(#paint4_linear_6_244)"/>
<g clip-path="url(#clip0_6_244)">
<path d="M78.8453 60.328C77.3808 61.0041 75.3249 61.9183 73.9791 63.0203C67.3434 68.4541 65.3442 76.9868 69.5139 82.0788C71.91 85.005 75.8217 86.1581 79.9752 85.5787L81.2517 88.6688C81.5592 89.4131 82.498 89.6493 83.1211 89.1391L85.8508 86.9038C86.0518 86.7392 86.194 86.5139 86.2559 86.2616L87.0878 82.875L90.8586 79.7872L94.3428 79.6396C94.6024 79.6286 94.8513 79.5336 95.0523 79.369L97.7821 77.1337C98.405 76.6236 98.3587 75.6565 97.6896 75.2084L94.9119 73.3474C95.7384 70.9897 95.9449 68.5946 95.4703 66.4249" stroke="white" stroke-width="4" stroke-linecap="round" stroke-linejoin="round"/>
<path d="M78.8453 60.328L83.9079 52.3049L88.3754 58.0257L92.7047 56.7339L97.1396 62.1498L95.4266 66.1375" stroke="white" stroke-width="4" stroke-linecap="round" stroke-linejoin="round"/>
<path d="M86.0947 66.0242C85.6674 66.374 85.0373 66.3113 84.6874 65.884C84.3376 65.4568 84.4003 64.8266 84.8276 64.4768C85.2548 64.1269 85.885 64.1897 86.2348 64.6169C86.5847 65.0442 86.5219 65.6743 86.0947 66.0242Z" fill="white" stroke="white" stroke-width="4" stroke-linecap="round" stroke-linejoin="round"/>
<path d="M61.4035 78.488C61.4035 78.488 64.4446 82.2017 68.2996 80.5959" stroke="white" stroke-width="4" stroke-linecap="round" stroke-linejoin="round"/>
<path d="M75.2694 61.3251C74.9981 60.5865 74.5999 59.8787 74.072 59.234C71.5774 56.1876 67.1303 55.7035 64.1392 58.1529C61.1481 60.6022 60.7456 65.0574 63.2402 68.1038C64.4334 69.5609 66.0732 70.4318 67.7868 70.6759" stroke="white" stroke-width="4" stroke-linejoin="round"/>
</g>
<rect x="487.854" y="181" width="72" height="72" rx="36" transform="rotate(60 487.854 181)" fill="url(#paint5_linear_6_244)"/>
<g clip-path="url(#clip1_6_244)">
<path d="M457.285 224.053L478.083 207.727C478.905 207.081 480.079 207.183 480.785 207.953L491.397 219.522C491.792 219.953 492.089 220.466 492.264 221.025L496.977 235.999C497.291 236.996 496.792 238.063 495.822 238.452L471.285 248.301C470.357 248.674 464.722 250.935 458.222 239.677C451.722 228.419 456.498 224.67 457.285 224.053Z" stroke="white" stroke-width="4" stroke-linecap="round" stroke-linejoin="round"/>
</g>
<rect x="82.6769" y="538.089" width="72" height="72" rx="36" transform="rotate(-135 82.6769 538.089)" fill="url(#paint6_linear_6_244)"/>
<g clip-path="url(#clip2_6_244)">
<path d="M78.4343 480.106C82.3395 484.011 83.9224 488.76 81.9698 490.712C80.0172 492.665 75.2684 491.082 71.3632 487.177C67.458 483.272 65.875 478.523 67.8277 476.57C69.7803 474.618 74.5291 476.201 78.4343 480.106Z" stroke="white" stroke-width="4" stroke-linecap="round" stroke-linejoin="round"/>
<path d="M87.6267 485.056C89.5793 483.103 87.9963 478.354 84.0911 474.449C80.1859 470.544 75.4371 468.961 73.4845 470.913" stroke="white" stroke-width="4" stroke-linecap="round" stroke-linejoin="round"/>
<path d="M91.8693 503.44C93.8219 501.488 92.239 496.739 88.3338 492.834C86.7416 491.242 85.0094 490.036 83.3833 489.298" stroke="white" stroke-width="4" stroke-linecap="round" stroke-linejoin="round"/>
<path d="M96.819 498.491C98.7717 496.538 97.1887 491.789 93.2835 487.884C91.6917 486.292 89.9597 485.086 88.334 484.348" stroke="white" stroke-width="4" stroke-linecap="round" stroke-linejoin="round"/>
<path d="M86.2124 509.097L101.769 493.541C103.721 491.588 102.139 486.839 98.2333 482.934C96.6414 481.342 94.9093 480.137 93.2835 479.399" stroke="white" stroke-width="4" stroke-linecap="round" stroke-linejoin="round"/>
<path d="M76.313 490.712L72.0703 494.955" stroke="white" stroke-width="4" stroke-linecap="round" stroke-linejoin="round"/>
<path d="M81.9698 490.712L93.2835 479.399C95.2361 477.446 93.6532 472.697 89.748 468.792C85.8428 464.887 81.094 463.304 79.1414 465.257L67.8277 476.57" stroke="white" stroke-width="4" stroke-linecap="round" stroke-linejoin="round"/>
<path d="M82.6769 498.491C86.5821 502.396 88.1651 507.145 86.2124 509.097C84.2598 511.05 79.5111 509.467 75.6058 505.562C71.7006 501.657 70.1177 496.908 72.0703 494.955C74.0229 493.003 78.7717 494.585 82.6769 498.491Z" stroke="white" stroke-width="4" stroke-linecap="round" stroke-linejoin="round"/>
</g>
<rect x="510.323" y="478.912" width="72" height="72" rx="36" transform="rotate(135 510.323 478.912)" fill="url(#paint7_linear_6_244)"/>
<g clip-path="url(#clip3_6_244)">
<path d="M452.103 497.534C459.28 500.346 467.755 498.853 473.554 493.054C480.887 485.72 481.335 474.109 474.898 466.253" stroke="white" stroke-width="4" stroke-linecap="round" stroke-linejoin="round"/>
<path d="M456.583 493.054L451.775 497.862C451.306 498.331 451.306 499.09 451.775 499.559L456.583 504.367" stroke="white" stroke-width="4" stroke-linecap="round" stroke-linejoin="round"/>
<path d="M466.65 460.359C459.473 457.547 450.999 459.04 445.2 464.839C437.867 472.172 437.418 483.784 443.855 491.64" stroke="white" stroke-width="4" stroke-linecap="round" stroke-linejoin="round"/>
<path d="M462.17 464.839L466.979 460.031C467.447 459.562 467.447 458.803 466.979 458.334L462.17 453.526" stroke="white" stroke-width="4" stroke-linecap="round" stroke-linejoin="round"/>
<path d="M463.654 474.669C462.464 473.479 459.26 470.275 457.44 468.455C456.971 467.986 456.211 467.986 455.74 468.452C451.521 472.622 447.996 475.981 451.634 479.619C455.514 483.499 459.412 478.912 463.654 474.669ZM463.654 474.669L469.868 480.883C470.337 481.352 470.337 482.112 469.871 482.583C465.701 486.803 462.342 490.327 458.705 486.69C454.825 482.81 459.412 478.912 463.654 474.669Z" stroke="white" stroke-width="4"/>
<path d="M466.483 485.983L468.604 488.104" stroke="white" stroke-width="4" stroke-linecap="round" stroke-linejoin="round"/>
<path d="M450.219 469.719L452.341 471.841" stroke="white" stroke-width="4" stroke-linecap="round" stroke-linejoin="round"/>
</g>
<rect x="338.5" y="72" width="72" height="72" rx="36" transform="rotate(30 338.5 72)" fill="url(#paint8_linear_6_244)"/>
<g clip-path="url(#clip4_6_244)">
<path d="M331.821 123.569L339.821 109.713C340.925 107.8 343.371 107.144 345.285 108.249L354.291 113.449L360.527 117.049L369.533 122.249C371.447 123.353 372.102 125.8 370.997 127.713L362.997 141.569C361.893 143.482 359.447 144.138 357.533 143.033L348.527 137.833L342.291 134.233L333.285 129.033C331.371 127.929 330.716 125.482 331.821 123.569Z" stroke="white" stroke-width="4" stroke-linecap="round" stroke-linejoin="round"/>
<path d="M360.925 131.158L360.954 131.149" stroke="white" stroke-width="4" stroke-linecap="round" stroke-linejoin="round"/>
<path d="M341.873 120.158L341.901 120.149" stroke="white" stroke-width="4" stroke-linecap="round" stroke-linejoin="round"/>
<path d="M333.821 120.105L332.088 119.105C330.175 118.001 329.52 115.554 330.624 113.641L338.624 99.7847C339.729 97.8715 342.175 97.216 344.088 98.3206L368.337 112.321C370.25 113.425 370.906 115.871 369.801 117.785L367.801 121.249" stroke="white" stroke-width="4" stroke-linecap="round" stroke-linejoin="round"/>
<path d="M349.409 129.105C347.496 128.001 346.84 125.554 347.945 123.641C349.049 121.728 351.496 121.072 353.409 122.177C355.322 123.282 355.978 125.728 354.873 127.641C353.768 129.554 351.322 130.21 349.409 129.105Z" stroke="white" stroke-width="4" stroke-linecap="round" stroke-linejoin="round"/>
</g>
<rect x="163" y="180" width="200" height="200" rx="100" fill="url(#paint9_linear_6_244)"/>
<path fill-rule="evenodd" clip-rule="evenodd" d="M249.579 239.393V229.851H258.995V239.393H267.455C267.777 239.393 268.096 239.396 268.411 239.401V229.851H277.828V240.624C279.071 240.964 280.236 241.376 281.322 241.857C285.025 243.5 287.808 245.781 289.671 248.699C291.535 251.592 292.467 254.927 292.467 258.703C292.467 261.646 291.878 264.233 290.701 266.464C289.524 268.671 287.906 270.486 285.846 271.908C283.811 273.306 281.481 274.299 278.857 274.887V275.623C281.726 275.746 284.412 276.555 286.913 278.051C289.438 279.547 291.486 281.643 293.055 284.34C294.625 287.013 295.409 290.201 295.409 293.904C295.409 297.901 294.416 301.469 292.43 304.607C290.468 307.722 287.563 310.186 283.713 312.001C281.941 312.836 279.979 313.479 277.828 313.93V327.717H268.411V314.722H258.995V327.717H249.579V314.722H237.294V239.393H249.579ZM266.204 301.702H253.22V281.692H266.572C269.123 281.692 271.317 282.146 273.156 283.053C275.02 283.96 276.454 285.211 277.46 286.805C278.465 288.399 278.968 290.238 278.968 292.322C278.968 295.167 277.95 297.447 275.915 299.164C273.88 300.856 270.643 301.702 266.204 301.702ZM265.027 270.915H253.22V252.267H265.322C268.853 252.267 271.575 253.1 273.487 254.768C275.424 256.435 276.393 258.63 276.393 261.352C276.393 263.338 275.89 265.042 274.885 266.464C273.904 267.887 272.555 268.99 270.839 269.775C269.147 270.535 267.21 270.915 265.027 270.915Z" fill="white"/>
<path d="M263 196.667C246.518 196.667 230.407 201.554 216.702 210.711C202.998 219.868 192.317 232.883 186.01 248.11C179.703 263.337 178.052 280.092 181.268 296.258C184.483 312.423 192.42 327.271 204.074 338.926C215.729 350.58 230.577 358.517 246.742 361.732C262.908 364.948 279.663 363.297 294.89 356.99C310.117 350.683 323.132 340.002 332.289 326.298C341.446 312.593 346.333 296.482 346.333 280L329.667 280C329.667 293.185 325.757 306.075 318.431 317.038C311.106 328.001 300.694 336.546 288.512 341.592C276.33 346.638 262.926 347.958 249.994 345.386C237.062 342.813 225.183 336.464 215.86 327.14C206.536 317.817 200.187 305.938 197.614 293.006C195.042 280.074 196.362 266.67 201.408 254.488C206.454 242.306 214.999 231.894 225.962 224.569C236.925 217.243 249.815 213.333 263 213.333L263 196.667Z" fill="white"/>
<defs>
<linearGradient id="paint0_linear_6_244" x1="171.904" y1="11.5068" x2="-17" y2="225.342" gradientUnits="userSpaceOnUse">
<stop stop-color="#10F1C2"/>
<stop offset="0.69" stop-color="#008671"/>
<stop offset="1" stop-color="#008671" stop-opacity="0"/>
</linearGradient>
<linearGradient id="paint1_linear_6_244" x1="310.5" y1="140" x2="409" y2="251.5" gradientUnits="userSpaceOnUse">
<stop stop-color="#10F1C2"/>
<stop offset="0.69" stop-color="#008671"/>
<stop offset="1" stop-color="#008671" stop-opacity="0"/>
</linearGradient>
<linearGradient id="paint2_linear_6_244" x1="204.438" y1="452.603" x2="83" y2="315.137" gradientUnits="userSpaceOnUse">
<stop stop-color="#10F1C2"/>
<stop offset="0.69" stop-color="#008671"/>
<stop offset="1" stop-color="#008671" stop-opacity="0"/>
</linearGradient>
<linearGradient id="paint3_linear_6_244" x1="191.425" y1="69.0411" x2="43" y2="237.055" gradientUnits="userSpaceOnUse">
<stop stop-color="#10F1C2"/>
<stop offset="0.69" stop-color="#008671"/>
<stop offset="1" stop-color="#008671" stop-opacity="0"/>
</linearGradient>
<linearGradient id="paint4_linear_6_244" x1="28.7506" y1="99.8666" x2="100.751" y2="99.8666" gradientUnits="userSpaceOnUse">
<stop stop-color="#10F1C2"/>
<stop offset="1" stop-color="#008671"/>
</linearGradient>
<linearGradient id="paint5_linear_6_244" x1="487.854" y1="217" x2="559.854" y2="217" gradientUnits="userSpaceOnUse">
<stop stop-color="#10F1C2"/>
<stop offset="1" stop-color="#008671"/>
</linearGradient>
<linearGradient id="paint6_linear_6_244" x1="82.6769" y1="574.089" x2="154.677" y2="574.089" gradientUnits="userSpaceOnUse">
<stop stop-color="#10F1C2"/>
<stop offset="1" stop-color="#008671"/>
</linearGradient>
<linearGradient id="paint7_linear_6_244" x1="510.323" y1="514.912" x2="582.323" y2="514.912" gradientUnits="userSpaceOnUse">
<stop stop-color="#10F1C2"/>
<stop offset="1" stop-color="#008671"/>
</linearGradient>
<linearGradient id="paint8_linear_6_244" x1="338.5" y1="108" x2="410.5" y2="108" gradientUnits="userSpaceOnUse">
<stop stop-color="#10F1C2"/>
<stop offset="1" stop-color="#008671"/>
</linearGradient>
<linearGradient id="paint9_linear_6_244" x1="163" y1="280" x2="363" y2="280" gradientUnits="userSpaceOnUse">
<stop stop-color="#10F1C2"/>
<stop offset="1" stop-color="#008671"/>
</linearGradient>
<clipPath id="clip0_6_244">
<rect width="48" height="48" fill="white" transform="translate(45.6376 65.5483) rotate(-39.313)"/>
</clipPath>
<clipPath id="clip1_6_244">
<rect width="48" height="48" fill="white" transform="translate(483.462 197.392) rotate(60)"/>
</clipPath>
<clipPath id="clip2_6_244">
<rect width="48" height="48" fill="white" transform="translate(82.6769 521.118) rotate(-135)"/>
</clipPath>
<clipPath id="clip3_6_244">
<rect width="48" height="48" fill="white" transform="translate(493.353 478.912) rotate(135)"/>
</clipPath>
<clipPath id="clip4_6_244">
<rect width="48" height="48" fill="white" transform="translate(342.892 88.3923) rotate(30)"/>
</clipPath>
</defs>
</svg>
