<svg width="49" height="49" viewBox="0 0 49 49" fill="none" xmlns="http://www.w3.org/2000/svg">
<rect width="48.9706" height="48.9706" rx="24.4853" fill="#16BFA5"/>
<path d="M14.5858 31.5563C13.8047 32.3374 13.8047 33.6037 14.5858 34.3848C15.3668 35.1658 16.6332 35.1658 17.4142 34.3848L14.5858 31.5563ZM34.9706 16C34.9706 14.8954 34.0751 14 32.9706 14L14.9706 14C13.866 14 12.9706 14.8954 12.9706 16C12.9706 17.1046 13.866 18 14.9706 18L30.9706 18L30.9706 34C30.9706 35.1046 31.866 36 32.9706 36C34.0751 36 34.9706 35.1046 34.9706 34L34.9706 16ZM17.4142 34.3848L34.3848 17.4142L31.5563 14.5858L14.5858 31.5563L17.4142 34.3848Z" fill="white"/>
</svg>
