<svg width="170" height="48" viewBox="0 0 170 48" fill="none" xmlns="http://www.w3.org/2000/svg">
<circle cx="24" cy="23.5" r="19.5" fill="white"/>
<path fill-rule="evenodd" clip-rule="evenodd" d="M24.5 2.5C12.6259 2.5 3 12.1259 3 24C3 35.8742 12.6259 45.5 24.5 45.5C36.3742 45.5 46 35.8742 46 24C46 12.1259 36.3742 2.5 24.5 2.5ZM32 19C32 17.4739 31.6356 16.1674 30.8346 15.1289C30.0396 14.0982 28.9392 13.4932 27.7704 13.1295C27.2212 12.9586 26.6268 12.8331 26 12.7413V11C26 10.1716 25.3284 9.5 24.5 9.5C23.6716 9.5 23 10.1716 23 11V12.5156C22.0528 12.4922 21.082 12.4986 20.1201 12.5049L19.6913 12.5076C18.2081 12.5163 17.0001 13.7195 17.0001 15.2118L17 24V32.7882C17 34.2806 18.2081 35.4838 19.6912 35.4924L20.1201 35.4952C21.0818 35.5014 22.0528 35.5078 23 35.4844V37C23 37.8284 23.6716 38.5 24.5 38.5C25.3284 38.5 26 37.8284 26 37V35.2586C26.6268 35.1668 27.2212 35.0414 27.7704 34.8706C28.9392 34.5068 30.0396 33.9018 30.8346 32.8712C31.6354 31.8326 32 30.526 32 29C32 27.3388 31.5372 25.9552 30.5814 24.898C30.2644 24.5472 29.9098 24.251 29.529 24C29.9098 23.749 30.2644 23.4528 30.5814 23.102C31.5372 22.0448 32 20.6612 32 19ZM26.3852 22.1026C25.286 22.3782 23.9756 22.4714 22.5024 22.4992C21.6696 22.4828 20.8268 22.487 20 22.4926L20.0001 15.5058C22.9344 15.4889 25.2504 15.4872 26.879 15.994C27.6686 16.2397 28.1558 16.5679 28.459 16.961C28.756 17.3462 29 17.954 29 19C29 20.0824 28.7128 20.6956 28.356 21.0902C27.9728 21.5142 27.3512 21.8606 26.3852 22.1026ZM22.5024 25.5008C21.6696 25.5172 20.8268 25.513 20 25.5074V32.4942C22.9344 32.5112 25.2504 32.5128 26.879 32.006C27.6684 31.7604 28.1558 31.4322 28.459 31.039C28.756 30.6538 29 30.046 29 29C29 27.9176 28.7128 27.3044 28.356 26.9098C27.9728 26.4858 27.3512 26.1394 26.3852 25.8974C25.286 25.6218 23.9756 25.5286 22.5024 25.5008Z" fill="#F68F15"/>
<path d="M63.66 23.408C64.604 23.584 65.38 24.056 65.988 24.824C66.596 25.592 66.9 26.472 66.9 27.464C66.9 28.36 66.676 29.152 66.228 29.84C65.796 30.512 65.164 31.04 64.332 31.424C63.5 31.808 62.516 32 61.38 32H54.156V15.248H61.068C62.204 15.248 63.18 15.432 63.996 15.8C64.828 16.168 65.452 16.68 65.868 17.336C66.3 17.992 66.516 18.736 66.516 19.568C66.516 20.544 66.252 21.36 65.724 22.016C65.212 22.672 64.524 23.136 63.66 23.408ZM57.516 22.16H60.588C61.388 22.16 62.004 21.984 62.436 21.632C62.868 21.264 63.084 20.744 63.084 20.072C63.084 19.4 62.868 18.88 62.436 18.512C62.004 18.144 61.388 17.96 60.588 17.96H57.516V22.16ZM60.9 29.264C61.716 29.264 62.348 29.072 62.796 28.688C63.26 28.304 63.492 27.76 63.492 27.056C63.492 26.336 63.252 25.776 62.772 25.376C62.292 24.96 61.644 24.752 60.828 24.752H57.516V29.264H60.9ZM71.2819 17.12C70.6899 17.12 70.1939 16.936 69.7939 16.568C69.4099 16.184 69.2179 15.712 69.2179 15.152C69.2179 14.592 69.4099 14.128 69.7939 13.76C70.1939 13.376 70.6899 13.184 71.2819 13.184C71.8739 13.184 72.3619 13.376 72.7459 13.76C73.1459 14.128 73.3459 14.592 73.3459 15.152C73.3459 15.712 73.1459 16.184 72.7459 16.568C72.3619 16.936 71.8739 17.12 71.2819 17.12ZM72.9379 18.704V32H69.5779V18.704H72.9379ZM80.1696 21.464V27.896C80.1696 28.344 80.2736 28.672 80.4816 28.88C80.7056 29.072 81.0736 29.168 81.5856 29.168H83.1456V32H81.0336C78.2016 32 76.7856 30.624 76.7856 27.872V21.464H75.2016V18.704H76.7856V15.416H80.1696V18.704H83.1456V21.464H80.1696ZM84.6982 25.352C84.6982 23.976 84.9783 22.776 85.5383 21.752C86.0983 20.712 86.8743 19.912 87.8663 19.352C88.8583 18.776 89.9943 18.488 91.2743 18.488C92.9223 18.488 94.2823 18.904 95.3543 19.736C96.4423 20.552 97.1703 21.704 97.5383 23.192H93.9143C93.7223 22.616 93.3943 22.168 92.9303 21.848C92.4823 21.512 91.9223 21.344 91.2503 21.344C90.2903 21.344 89.5303 21.696 88.9703 22.4C88.4103 23.088 88.1303 24.072 88.1303 25.352C88.1303 26.616 88.4103 27.6 88.9703 28.304C89.5303 28.992 90.2903 29.336 91.2503 29.336C92.6103 29.336 93.4983 28.728 93.9143 27.512H97.5383C97.1703 28.952 96.4423 30.096 95.3543 30.944C94.2663 31.792 92.9063 32.216 91.2743 32.216C89.9943 32.216 88.8583 31.936 87.8663 31.376C86.8743 30.8 86.0983 30 85.5383 28.976C84.9783 27.936 84.6982 26.728 84.6982 25.352ZM105.904 32.216C104.624 32.216 103.472 31.936 102.448 31.376C101.424 30.8 100.616 29.992 100.024 28.952C99.4478 27.912 99.1598 26.712 99.1598 25.352C99.1598 23.992 99.4558 22.792 100.048 21.752C100.656 20.712 101.48 19.912 102.52 19.352C103.56 18.776 104.72 18.488 106 18.488C107.28 18.488 108.44 18.776 109.48 19.352C110.52 19.912 111.336 20.712 111.928 21.752C112.536 22.792 112.84 23.992 112.84 25.352C112.84 26.712 112.528 27.912 111.904 28.952C111.296 29.992 110.464 30.8 109.408 31.376C108.368 31.936 107.2 32.216 105.904 32.216ZM105.904 29.288C106.512 29.288 107.08 29.144 107.608 28.856C108.152 28.552 108.584 28.104 108.904 27.512C109.224 26.92 109.384 26.2 109.384 25.352C109.384 24.088 109.048 23.12 108.376 22.448C107.72 21.76 106.912 21.416 105.952 21.416C104.992 21.416 104.184 21.76 103.528 22.448C102.888 23.12 102.568 24.088 102.568 25.352C102.568 26.616 102.88 27.592 103.504 28.28C104.144 28.952 104.944 29.288 105.904 29.288ZM117.008 17.12C116.416 17.12 115.92 16.936 115.52 16.568C115.136 16.184 114.944 15.712 114.944 15.152C114.944 14.592 115.136 14.128 115.52 13.76C115.92 13.376 116.416 13.184 117.008 13.184C117.6 13.184 118.088 13.376 118.472 13.76C118.872 14.128 119.072 14.592 119.072 15.152C119.072 15.712 118.872 16.184 118.472 16.568C118.088 16.936 117.6 17.12 117.008 17.12ZM118.664 18.704V32H115.304V18.704H118.664ZM129.352 18.512C130.936 18.512 132.216 19.016 133.192 20.024C134.168 21.016 134.656 22.408 134.656 24.2V32H131.296V24.656C131.296 23.6 131.032 22.792 130.504 22.232C129.976 21.656 129.256 21.368 128.344 21.368C127.416 21.368 126.68 21.656 126.136 22.232C125.608 22.792 125.344 23.6 125.344 24.656V32H121.984V18.704H125.344V20.36C125.792 19.784 126.36 19.336 127.048 19.016C127.752 18.68 128.52 18.512 129.352 18.512Z" fill="white"/>
<path d="M145.316 11.256C145.721 11.32 146.089 11.4853 146.42 11.752C146.761 12.0187 147.028 12.3493 147.22 12.744C147.423 13.1387 147.524 13.56 147.524 14.008C147.524 14.5733 147.38 15.0853 147.092 15.544C146.804 15.992 146.383 16.3493 145.828 16.616C145.284 16.872 144.639 17 143.892 17H139.732V5.848H143.732C144.489 5.848 145.135 5.976 145.668 6.232C146.201 6.47733 146.601 6.81333 146.868 7.24C147.135 7.66667 147.268 8.14667 147.268 8.68C147.268 9.34133 147.087 9.89067 146.724 10.328C146.372 10.7547 145.903 11.064 145.316 11.256ZM141.188 10.664H143.636C144.319 10.664 144.847 10.504 145.22 10.184C145.593 9.864 145.78 9.42133 145.78 8.856C145.78 8.29067 145.593 7.848 145.22 7.528C144.847 7.208 144.308 7.048 143.604 7.048H141.188V10.664ZM143.764 15.8C144.489 15.8 145.055 15.6293 145.46 15.288C145.865 14.9467 146.068 14.472 146.068 13.864C146.068 13.2453 145.855 12.76 145.428 12.408C145.001 12.0453 144.431 11.864 143.716 11.864H141.188V15.8H143.764ZM156.409 5.848V7.032H153.369V17H151.913V7.032H148.857V5.848H156.409ZM157.657 11.416C157.657 10.328 157.902 9.352 158.393 8.488C158.883 7.61333 159.55 6.93067 160.393 6.44C161.246 5.94933 162.19 5.704 163.225 5.704C164.441 5.704 165.502 5.99733 166.409 6.584C167.315 7.17067 167.977 8.00267 168.393 9.08H166.649C166.339 8.408 165.891 7.89067 165.305 7.528C164.729 7.16533 164.035 6.984 163.225 6.984C162.446 6.984 161.747 7.16533 161.129 7.528C160.51 7.89067 160.025 8.408 159.673 9.08C159.321 9.74133 159.145 10.52 159.145 11.416C159.145 12.3013 159.321 13.08 159.673 13.752C160.025 14.4133 160.51 14.9253 161.129 15.288C161.747 15.6507 162.446 15.832 163.225 15.832C164.035 15.832 164.729 15.656 165.305 15.304C165.891 14.9413 166.339 14.424 166.649 13.752H168.393C167.977 14.8187 167.315 15.6453 166.409 16.232C165.502 16.808 164.441 17.096 163.225 17.096C162.19 17.096 161.246 16.856 160.393 16.376C159.55 15.8853 158.883 15.208 158.393 14.344C157.902 13.48 157.657 12.504 157.657 11.416Z" fill="white" fill-opacity="0.75"/>
</svg>
