<svg width="328" height="126" viewBox="0 0 328 126" fill="none" xmlns="http://www.w3.org/2000/svg">
<path d="M423 -158C423 -123.988 416.301 -90.3083 403.285 -58.885C390.269 -27.4617 371.191 1.09029 347.141 25.1407C323.09 49.191 294.538 68.2688 263.115 81.2848C231.692 94.3008 198.012 101 164 101C129.988 101 96.3083 94.3008 64.885 81.2848C33.4617 68.2688 4.9097 49.191 -19.1407 25.1406C-43.191 1.09027 -62.2688 -27.4617 -75.2848 -58.885C-88.3008 -90.3083 -95 -123.988 -95 -158C-95 -192.012 -88.3008 -225.692 -75.2848 -257.115C-62.2688 -288.538 -43.191 -317.09 -19.1406 -341.141C4.90974 -365.191 33.4617 -384.269 64.885 -397.285C96.3083 -410.301 129.988 -417 164 -417C198.012 -417 231.692 -410.301 263.115 -397.285C294.538 -384.269 323.09 -365.191 347.141 -341.141C371.191 -317.09 390.269 -288.538 403.285 -257.115C416.301 -225.692 423 -192.012 423 -158L423 -158Z" stroke="url(#paint0_linear_2060_2)" stroke-opacity="0.25" stroke-width="50"/>
<path d="M87.9802 33.8C88.7936 33.9733 89.4469 34.38 89.9402 35.02C90.4336 35.6467 90.6802 36.3667 90.6802 37.18C90.6802 38.3533 90.2669 39.2867 89.4402 39.98C88.6269 40.66 87.4869 41 86.0202 41H79.4802V26.96H85.8002C87.2269 26.96 88.3402 27.2867 89.1402 27.94C89.9536 28.5933 90.3602 29.48 90.3602 30.6C90.3602 31.4267 90.1402 32.1133 89.7002 32.66C89.2736 33.2067 88.7002 33.5867 87.9802 33.8ZM82.9002 32.64H85.1402C85.7002 32.64 86.1269 32.52 86.4202 32.28C86.7269 32.0267 86.8802 31.66 86.8802 31.18C86.8802 30.7 86.7269 30.3333 86.4202 30.08C86.1269 29.8267 85.7002 29.7 85.1402 29.7H82.9002V32.64ZM85.4202 38.24C85.9936 38.24 86.4336 38.1133 86.7402 37.86C87.0602 37.5933 87.2202 37.2133 87.2202 36.72C87.2202 36.2267 87.0536 35.84 86.7202 35.56C86.4002 35.28 85.9536 35.14 85.3802 35.14H82.9002V38.24H85.4202ZM96.0838 31.7C96.4838 31.0867 96.9838 30.6067 97.5838 30.26C98.1838 29.9 98.8505 29.72 99.5838 29.72V33.34H98.6438C97.7905 33.34 97.1505 33.5267 96.7238 33.9C96.2972 34.26 96.0838 34.9 96.0838 35.82V41H92.6638V29.84H96.0838V31.7ZM102.939 28.68C102.339 28.68 101.845 28.5067 101.459 28.16C101.085 27.8 100.899 27.36 100.899 26.84C100.899 26.3067 101.085 25.8667 101.459 25.52C101.845 25.16 102.339 24.98 102.939 24.98C103.525 24.98 104.005 25.16 104.379 25.52C104.765 25.8667 104.959 26.3067 104.959 26.84C104.959 27.36 104.765 27.8 104.379 28.16C104.005 28.5067 103.525 28.68 102.939 28.68ZM104.639 29.84V41H101.219V29.84H104.639ZM106.437 35.4C106.437 34.2533 106.65 33.2467 107.077 32.38C107.517 31.5133 108.11 30.8467 108.857 30.38C109.604 29.9133 110.437 29.68 111.357 29.68C112.09 29.68 112.757 29.8333 113.357 30.14C113.97 30.4467 114.45 30.86 114.797 31.38V26.2H118.217V41H114.797V39.4C114.477 39.9333 114.017 40.36 113.417 40.68C112.83 41 112.144 41.16 111.357 41.16C110.437 41.16 109.604 40.9267 108.857 40.46C108.11 39.98 107.517 39.3067 107.077 38.44C106.65 37.56 106.437 36.5467 106.437 35.4ZM114.797 35.42C114.797 34.5667 114.557 33.8933 114.077 33.4C113.61 32.9067 113.037 32.66 112.357 32.66C111.677 32.66 111.097 32.9067 110.617 33.4C110.15 33.88 109.917 34.5467 109.917 35.4C109.917 36.2533 110.15 36.9333 110.617 37.44C111.097 37.9333 111.677 38.18 112.357 38.18C113.037 38.18 113.61 37.9333 114.077 37.44C114.557 36.9467 114.797 36.2733 114.797 35.42ZM124.931 29.68C125.718 29.68 126.405 29.84 126.991 30.16C127.591 30.48 128.051 30.9 128.371 31.42V29.84H131.791V40.98C131.791 42.0067 131.585 42.9333 131.171 43.76C130.771 44.6 130.151 45.2667 129.311 45.76C128.485 46.2533 127.451 46.5 126.211 46.5C124.558 46.5 123.218 46.1067 122.191 45.32C121.165 44.5467 120.578 43.4933 120.431 42.16H123.811C123.918 42.5867 124.171 42.92 124.571 43.16C124.971 43.4133 125.465 43.54 126.051 43.54C126.758 43.54 127.318 43.3333 127.731 42.92C128.158 42.52 128.371 41.8733 128.371 40.98V39.4C128.038 39.92 127.578 40.3467 126.991 40.68C126.405 41 125.718 41.16 124.931 41.16C124.011 41.16 123.178 40.9267 122.431 40.46C121.685 39.98 121.091 39.3067 120.651 38.44C120.225 37.56 120.011 36.5467 120.011 35.4C120.011 34.2533 120.225 33.2467 120.651 32.38C121.091 31.5133 121.685 30.8467 122.431 30.38C123.178 29.9133 124.011 29.68 124.931 29.68ZM128.371 35.42C128.371 34.5667 128.131 33.8933 127.651 33.4C127.185 32.9067 126.611 32.66 125.931 32.66C125.251 32.66 124.671 32.9067 124.191 33.4C123.725 33.88 123.491 34.5467 123.491 35.4C123.491 36.2533 123.725 36.9333 124.191 37.44C124.671 37.9333 125.251 38.18 125.931 38.18C126.611 38.18 127.185 37.9333 127.651 37.44C128.131 36.9467 128.371 36.2733 128.371 35.42ZM135.985 28.68C135.385 28.68 134.892 28.5067 134.505 28.16C134.132 27.8 133.945 27.36 133.945 26.84C133.945 26.3067 134.132 25.8667 134.505 25.52C134.892 25.16 135.385 24.98 135.985 24.98C136.572 24.98 137.052 25.16 137.425 25.52C137.812 25.8667 138.005 26.3067 138.005 26.84C138.005 27.36 137.812 27.8 137.425 28.16C137.052 28.5067 136.572 28.68 135.985 28.68ZM137.685 29.84V41H134.265V29.84H137.685ZM146.964 29.72C148.27 29.72 149.31 30.1467 150.084 31C150.87 31.84 151.264 33 151.264 34.48V41H147.864V34.94C147.864 34.1933 147.67 33.6133 147.284 33.2C146.897 32.7867 146.377 32.58 145.724 32.58C145.07 32.58 144.55 32.7867 144.164 33.2C143.777 33.6133 143.584 34.1933 143.584 34.94V41H140.164V29.84H143.584V31.32C143.93 30.8267 144.397 30.44 144.984 30.16C145.57 29.8667 146.23 29.72 146.964 29.72ZM157.88 29.68C158.667 29.68 159.354 29.84 159.94 30.16C160.54 30.48 161 30.9 161.32 31.42V29.84H164.74V40.98C164.74 42.0067 164.534 42.9333 164.12 43.76C163.72 44.6 163.1 45.2667 162.26 45.76C161.434 46.2533 160.4 46.5 159.16 46.5C157.507 46.5 156.167 46.1067 155.14 45.32C154.114 44.5467 153.527 43.4933 153.38 42.16H156.76C156.867 42.5867 157.12 42.92 157.52 43.16C157.92 43.4133 158.414 43.54 159 43.54C159.707 43.54 160.267 43.3333 160.68 42.92C161.107 42.52 161.32 41.8733 161.32 40.98V39.4C160.987 39.92 160.527 40.3467 159.94 40.68C159.354 41 158.667 41.16 157.88 41.16C156.96 41.16 156.127 40.9267 155.38 40.46C154.634 39.98 154.04 39.3067 153.6 38.44C153.174 37.56 152.96 36.5467 152.96 35.4C152.96 34.2533 153.174 33.2467 153.6 32.38C154.04 31.5133 154.634 30.8467 155.38 30.38C156.127 29.9133 156.96 29.68 157.88 29.68ZM161.32 35.42C161.32 34.5667 161.08 33.8933 160.6 33.4C160.134 32.9067 159.56 32.66 158.88 32.66C158.2 32.66 157.62 32.9067 157.14 33.4C156.674 33.88 156.44 34.5467 156.44 35.4C156.44 36.2533 156.674 36.9333 157.14 37.44C157.62 37.9333 158.2 38.18 158.88 38.18C159.56 38.18 160.134 37.9333 160.6 37.44C161.08 36.9467 161.32 36.2733 161.32 35.42ZM177.673 38.1V41H175.933C174.693 41 173.726 40.7 173.033 40.1C172.34 39.4867 171.993 38.4933 171.993 37.12V32.68H170.633V29.84H171.993V27.12H175.413V29.84H177.653V32.68H175.413V37.16C175.413 37.4933 175.493 37.7333 175.653 37.88C175.813 38.0267 176.08 38.1 176.453 38.1H177.673ZM186.438 29.72C187.718 29.72 188.745 30.1467 189.518 31C190.291 31.84 190.678 33 190.678 34.48V41H187.278V34.94C187.278 34.1933 187.085 33.6133 186.698 33.2C186.311 32.7867 185.791 32.58 185.138 32.58C184.485 32.58 183.965 32.7867 183.578 33.2C183.191 33.6133 182.998 34.1933 182.998 34.94V41H179.578V26.2H182.998V31.34C183.345 30.8467 183.818 30.4533 184.418 30.16C185.018 29.8667 185.691 29.72 186.438 29.72ZM203.574 35.24C203.574 35.56 203.554 35.8933 203.514 36.24H195.774C195.828 36.9333 196.048 37.4667 196.434 37.84C196.834 38.2 197.321 38.38 197.894 38.38C198.748 38.38 199.341 38.02 199.674 37.3H203.314C203.128 38.0333 202.788 38.6933 202.294 39.28C201.814 39.8667 201.208 40.3267 200.474 40.66C199.741 40.9933 198.921 41.16 198.014 41.16C196.921 41.16 195.948 40.9267 195.094 40.46C194.241 39.9933 193.574 39.3267 193.094 38.46C192.614 37.5933 192.374 36.58 192.374 35.42C192.374 34.26 192.608 33.2467 193.074 32.38C193.554 31.5133 194.221 30.8467 195.074 30.38C195.928 29.9133 196.908 29.68 198.014 29.68C199.094 29.68 200.054 29.9067 200.894 30.36C201.734 30.8133 202.388 31.46 202.854 32.3C203.334 33.14 203.574 34.12 203.574 35.24ZM200.074 34.34C200.074 33.7533 199.874 33.2867 199.474 32.94C199.074 32.5933 198.574 32.42 197.974 32.42C197.401 32.42 196.914 32.5867 196.514 32.92C196.128 33.2533 195.888 33.7267 195.794 34.34H200.074ZM218.937 31.4C218.684 30.9333 218.317 30.58 217.837 30.34C217.37 30.0867 216.817 29.96 216.177 29.96C215.07 29.96 214.184 30.3267 213.517 31.06C212.85 31.78 212.517 32.7467 212.517 33.96C212.517 35.2533 212.864 36.2667 213.557 37C214.264 37.72 215.23 38.08 216.457 38.08C217.297 38.08 218.004 37.8667 218.577 37.44C219.164 37.0133 219.59 36.4 219.857 35.6H215.517V33.08H222.957V36.26C222.704 37.1133 222.27 37.9067 221.657 38.64C221.057 39.3733 220.29 39.9667 219.357 40.42C218.424 40.8733 217.37 41.1 216.197 41.1C214.81 41.1 213.57 40.8 212.477 40.2C211.397 39.5867 210.55 38.74 209.937 37.66C209.337 36.58 209.037 35.3467 209.037 33.96C209.037 32.5733 209.337 31.34 209.937 30.26C210.55 29.1667 211.397 28.32 212.477 27.72C213.557 27.1067 214.79 26.8 216.177 26.8C217.857 26.8 219.27 27.2067 220.417 28.02C221.577 28.8333 222.344 29.96 222.717 31.4H218.937ZM224.171 35.4C224.171 34.2533 224.385 33.2467 224.811 32.38C225.251 31.5133 225.845 30.8467 226.591 30.38C227.338 29.9133 228.171 29.68 229.091 29.68C229.878 29.68 230.565 29.84 231.151 30.16C231.751 30.48 232.211 30.9 232.531 31.42V29.84H235.951V41H232.531V39.42C232.198 39.94 231.731 40.36 231.131 40.68C230.545 41 229.858 41.16 229.071 41.16C228.165 41.16 227.338 40.9267 226.591 40.46C225.845 39.98 225.251 39.3067 224.811 38.44C224.385 37.56 224.171 36.5467 224.171 35.4ZM232.531 35.42C232.531 34.5667 232.291 33.8933 231.811 33.4C231.345 32.9067 230.771 32.66 230.091 32.66C229.411 32.66 228.831 32.9067 228.351 33.4C227.885 33.88 227.651 34.5467 227.651 35.4C227.651 36.2533 227.885 36.9333 228.351 37.44C228.831 37.9333 229.411 38.18 230.091 38.18C230.771 38.18 231.345 37.9333 231.811 37.44C232.291 36.9467 232.531 36.2733 232.531 35.42ZM241.846 31.42C242.179 30.9 242.639 30.48 243.226 30.16C243.812 29.84 244.499 29.68 245.286 29.68C246.206 29.68 247.039 29.9133 247.786 30.38C248.532 30.8467 249.119 31.5133 249.546 32.38C249.986 33.2467 250.206 34.2533 250.206 35.4C250.206 36.5467 249.986 37.56 249.546 38.44C249.119 39.3067 248.532 39.98 247.786 40.46C247.039 40.9267 246.206 41.16 245.286 41.16C244.512 41.16 243.826 41 243.226 40.68C242.639 40.36 242.179 39.9467 241.846 39.44V46.32H238.426V29.84H241.846V31.42ZM246.726 35.4C246.726 34.5467 246.486 33.88 246.006 33.4C245.539 32.9067 244.959 32.66 244.266 32.66C243.586 32.66 243.006 32.9067 242.526 33.4C242.059 33.8933 241.826 34.5667 241.826 35.42C241.826 36.2733 242.059 36.9467 242.526 37.44C243.006 37.9333 243.586 38.18 244.266 38.18C244.946 38.18 245.526 37.9333 246.006 37.44C246.486 36.9333 246.726 36.2533 246.726 35.4Z" fill="white"/>
<path d="M163.089 108.024H156.801L155.793 111H151.497L157.593 94.152H162.345L168.441 111H164.097L163.089 108.024ZM162.033 104.856L159.945 98.688L157.881 104.856H162.033ZM174.401 94.152V111H170.297V94.152H174.401Z" fill="#10F1C2"/>
<path d="M28.8195 53.3503L27.1755 56.1978L21.2311 52.7658L19.4551 55.842L23.903 58.41L22.307 61.1743L17.8591 58.6063L14.4511 64.5091L10.8969 62.4571L19.3209 47.8663L28.8195 53.3503ZM29.7044 73.3156L29.8498 66.0557L28.9977 65.5637L25.8177 71.0716L22.2635 69.0196L30.6875 54.4288L36.6527 57.8728C37.8027 58.5368 38.6636 59.3018 39.2353 60.1676C39.8208 61.0414 40.1105 61.9477 40.1043 62.8864C40.1062 63.8112 39.8591 64.7031 39.3631 65.5622C38.8031 66.5322 38.026 67.2382 37.0317 67.6803C36.0513 68.1304 34.9356 68.2068 33.6847 67.9095L33.7158 75.6316L29.7044 73.3156ZM30.4497 63.0488L32.6528 64.3208C33.3041 64.6968 33.881 64.8174 34.3837 64.6827C34.9003 64.556 35.3266 64.2017 35.6626 63.6197C35.9826 63.0655 36.0683 62.533 35.9197 62.0223C35.785 61.5196 35.3921 61.0803 34.7408 60.7043L32.5377 59.4323L30.4497 63.0488ZM46.1564 67.1565L44.4524 70.1079L49.212 72.8559L47.628 75.5994L42.8684 72.8514L41.0204 76.0523L46.4036 79.1603L44.7596 82.0078L35.8222 76.8478L44.2462 62.257L53.1836 67.417L51.5396 70.2645L46.1564 67.1565ZM57.4012 73.6486L55.6972 76.6001L60.4568 79.3481L58.8728 82.0916L54.1132 79.3436L52.2652 82.5445L57.6484 85.6525L56.0044 88.4999L47.067 83.3399L55.491 68.7492L64.4284 73.9092L62.7844 76.7566L57.4012 73.6486Z" fill="white"/>
<path d="M272.971 68.7693L274.615 71.6168L268.671 75.0488L270.447 78.125L274.895 75.557L276.491 78.3213L272.043 80.8893L275.451 86.7921L271.897 88.8441L263.473 74.2533L272.971 68.7693ZM290.704 77.9856L284.49 74.2297L283.638 74.7217L286.818 80.2296L283.263 82.2816L274.839 67.6908L280.805 64.2468C281.955 63.5828 283.048 63.2198 284.083 63.1576C285.133 63.0874 286.063 63.2897 286.872 63.7644C287.674 64.2252 288.323 64.8851 288.819 65.7442C289.379 66.7142 289.602 67.7402 289.488 68.8223C289.387 69.8964 288.896 70.9008 288.013 71.8355L294.716 75.6696L290.704 77.9856ZM282.186 72.2068L284.389 70.9348C285.04 70.5588 285.433 70.1194 285.568 69.6167C285.716 69.106 285.623 68.5597 285.287 67.9777C284.967 67.4235 284.548 67.083 284.032 66.9563C283.529 66.8216 282.952 66.9423 282.301 67.3183L280.098 68.5903L282.186 72.2068ZM293.596 60.6582L295.3 63.6096L300.06 60.8616L301.644 63.6052L296.884 66.3532L298.732 69.554L304.116 66.446L305.76 69.2935L296.822 74.4535L288.398 59.8627L297.336 54.7027L298.98 57.5502L293.596 60.6582ZM304.841 54.166L306.545 57.1174L311.305 54.3694L312.889 57.113L308.129 59.861L309.977 63.0618L315.36 59.9538L317.004 62.8013L308.067 67.9613L299.643 53.3705L308.58 48.2105L310.224 51.058L304.841 54.166Z" fill="white"/>
<defs>
<linearGradient id="paint0_linear_2060_2" x1="164" y1="-442" x2="164" y2="126" gradientUnits="userSpaceOnUse">
<stop offset="0.929076" stop-color="#767676"/>
<stop offset="1" stop-color="white"/>
</linearGradient>
</defs>
</svg>
