<svg width="32" height="33" viewBox="0 0 32 33" fill="none" xmlns="http://www.w3.org/2000/svg">
<rect y="0.5" width="32" height="32" rx="16" fill="url(#paint0_linear_6_116)"/>
<path fill-rule="evenodd" clip-rule="evenodd" d="M26.1824 9.15173C26.4824 9.45178 26.6509 9.85867 26.6509 10.2829C26.6509 10.7072 26.4824 11.1141 26.1824 11.4141L14.1899 23.4067C14.0314 23.5652 13.8432 23.6909 13.6362 23.7767C13.4291 23.8625 13.2071 23.9067 12.983 23.9067C12.7588 23.9067 12.5368 23.8625 12.3298 23.7767C12.1227 23.6909 11.9345 23.5652 11.776 23.4067L5.81762 17.4493C5.66481 17.3017 5.54292 17.1252 5.45906 16.93C5.37521 16.7348 5.33107 16.5248 5.32922 16.3124C5.32738 16.0999 5.36786 15.8892 5.44831 15.6926C5.52876 15.496 5.64756 15.3173 5.79779 15.1671C5.94802 15.0169 6.12666 14.8981 6.3233 14.8176C6.51993 14.7372 6.73062 14.6967 6.94307 14.6985C7.15551 14.7004 7.36546 14.7445 7.56067 14.8284C7.75588 14.9122 7.93243 15.0341 8.08002 15.1869L12.9824 20.0893L23.919 9.15173C24.0675 9.00305 24.244 8.8851 24.4382 8.80463C24.6323 8.72416 24.8405 8.68274 25.0507 8.68274C25.2609 8.68274 25.469 8.72416 25.6632 8.80463C25.8574 8.8851 26.0338 9.00305 26.1824 9.15173Z" fill="white"/>
<defs>
<linearGradient id="paint0_linear_6_116" x1="0" y1="16.5" x2="32" y2="16.5" gradientUnits="userSpaceOnUse">
<stop stop-color="#10F1C2"/>
<stop offset="1" stop-color="#008671"/>
</linearGradient>
</defs>
</svg>
