<svg width="568" height="159" viewBox="0 0 568 159" fill="none" xmlns="http://www.w3.org/2000/svg">
<path d="M191.676 40.36C192.652 40.568 193.436 41.056 194.028 41.824C194.62 42.576 194.916 43.44 194.916 44.416C194.916 45.824 194.42 46.944 193.428 47.776C192.452 48.592 191.084 49 189.324 49H181.476V32.152H189.06C190.772 32.152 192.108 32.544 193.068 33.328C194.044 34.112 194.532 35.176 194.532 36.52C194.532 37.512 194.268 38.336 193.74 38.992C193.228 39.648 192.54 40.104 191.676 40.36ZM185.58 38.968H188.268C188.94 38.968 189.452 38.824 189.804 38.536C190.172 38.232 190.356 37.792 190.356 37.216C190.356 36.64 190.172 36.2 189.804 35.896C189.452 35.592 188.94 35.44 188.268 35.44H185.58V38.968ZM188.604 45.688C189.292 45.688 189.82 45.536 190.188 45.232C190.572 44.912 190.764 44.456 190.764 43.864C190.764 43.272 190.564 42.808 190.164 42.472C189.78 42.136 189.244 41.968 188.556 41.968H185.58V45.688H188.604ZM201.401 37.84C201.881 37.104 202.481 36.528 203.201 36.112C203.921 35.68 204.721 35.464 205.601 35.464V39.808H204.473C203.449 39.808 202.681 40.032 202.169 40.48C201.657 40.912 201.401 41.68 201.401 42.784V49H197.297V35.608H201.401V37.84ZM209.626 34.216C208.906 34.216 208.314 34.008 207.85 33.592C207.402 33.16 207.178 32.632 207.178 32.008C207.178 31.368 207.402 30.84 207.85 30.424C208.314 29.992 208.906 29.776 209.626 29.776C210.33 29.776 210.906 29.992 211.354 30.424C211.818 30.84 212.05 31.368 212.05 32.008C212.05 32.632 211.818 33.16 211.354 33.592C210.906 34.008 210.33 34.216 209.626 34.216ZM211.666 35.608V49H207.562V35.608H211.666ZM213.824 42.28C213.824 40.904 214.08 39.696 214.592 38.656C215.12 37.616 215.832 36.816 216.728 36.256C217.624 35.696 218.624 35.416 219.728 35.416C220.608 35.416 221.408 35.6 222.128 35.968C222.864 36.336 223.44 36.832 223.856 37.456V31.24H227.96V49H223.856V47.08C223.472 47.72 222.92 48.232 222.2 48.616C221.496 49 220.672 49.192 219.728 49.192C218.624 49.192 217.624 48.912 216.728 48.352C215.832 47.776 215.12 46.968 214.592 45.928C214.08 44.872 213.824 43.656 213.824 42.28ZM223.856 42.304C223.856 41.28 223.568 40.472 222.992 39.88C222.432 39.288 221.744 38.992 220.928 38.992C220.112 38.992 219.416 39.288 218.84 39.88C218.28 40.456 218 41.256 218 42.28C218 43.304 218.28 44.12 218.84 44.728C219.416 45.32 220.112 45.616 220.928 45.616C221.744 45.616 222.432 45.32 222.992 44.728C223.568 44.136 223.856 43.328 223.856 42.304ZM236.017 35.416C236.961 35.416 237.785 35.608 238.489 35.992C239.209 36.376 239.761 36.88 240.145 37.504V35.608H244.249V48.976C244.249 50.208 244.001 51.32 243.505 52.312C243.025 53.32 242.281 54.12 241.273 54.712C240.281 55.304 239.041 55.6 237.553 55.6C235.569 55.6 233.961 55.128 232.729 54.184C231.497 53.256 230.793 51.992 230.617 50.392H234.673C234.801 50.904 235.105 51.304 235.585 51.592C236.065 51.896 236.657 52.048 237.361 52.048C238.209 52.048 238.881 51.8 239.377 51.304C239.889 50.824 240.145 50.048 240.145 48.976V47.08C239.745 47.704 239.193 48.216 238.489 48.616C237.785 49 236.961 49.192 236.017 49.192C234.913 49.192 233.913 48.912 233.017 48.352C232.121 47.776 231.409 46.968 230.881 45.928C230.369 44.872 230.113 43.656 230.113 42.28C230.113 40.904 230.369 39.696 230.881 38.656C231.409 37.616 232.121 36.816 233.017 36.256C233.913 35.696 234.913 35.416 236.017 35.416ZM240.145 42.304C240.145 41.28 239.857 40.472 239.281 39.88C238.721 39.288 238.033 38.992 237.217 38.992C236.401 38.992 235.705 39.288 235.129 39.88C234.569 40.456 234.289 41.256 234.289 42.28C234.289 43.304 234.569 44.12 235.129 44.728C235.705 45.32 236.401 45.616 237.217 45.616C238.033 45.616 238.721 45.32 239.281 44.728C239.857 44.136 240.145 43.328 240.145 42.304ZM249.282 34.216C248.562 34.216 247.97 34.008 247.506 33.592C247.058 33.16 246.834 32.632 246.834 32.008C246.834 31.368 247.058 30.84 247.506 30.424C247.97 29.992 248.562 29.776 249.282 29.776C249.986 29.776 250.562 29.992 251.01 30.424C251.474 30.84 251.706 31.368 251.706 32.008C251.706 32.632 251.474 33.16 251.01 33.592C250.562 34.008 249.986 34.216 249.282 34.216ZM251.322 35.608V49H247.218V35.608H251.322ZM262.457 35.464C264.025 35.464 265.273 35.976 266.201 37C267.145 38.008 267.617 39.4 267.617 41.176V49H263.537V41.728C263.537 40.832 263.305 40.136 262.841 39.64C262.377 39.144 261.753 38.896 260.969 38.896C260.185 38.896 259.561 39.144 259.097 39.64C258.633 40.136 258.401 40.832 258.401 41.728V49H254.297V35.608H258.401V37.384C258.817 36.792 259.377 36.328 260.081 35.992C260.785 35.64 261.577 35.464 262.457 35.464ZM275.556 35.416C276.5 35.416 277.324 35.608 278.028 35.992C278.748 36.376 279.3 36.88 279.684 37.504V35.608H283.788V48.976C283.788 50.208 283.54 51.32 283.044 52.312C282.564 53.32 281.82 54.12 280.812 54.712C279.82 55.304 278.58 55.6 277.092 55.6C275.108 55.6 273.5 55.128 272.268 54.184C271.036 53.256 270.332 51.992 270.156 50.392H274.212C274.34 50.904 274.644 51.304 275.124 51.592C275.604 51.896 276.196 52.048 276.9 52.048C277.748 52.048 278.42 51.8 278.916 51.304C279.428 50.824 279.684 50.048 279.684 48.976V47.08C279.284 47.704 278.732 48.216 278.028 48.616C277.324 49 276.5 49.192 275.556 49.192C274.452 49.192 273.452 48.912 272.556 48.352C271.66 47.776 270.948 46.968 270.42 45.928C269.908 44.872 269.652 43.656 269.652 42.28C269.652 40.904 269.908 39.696 270.42 38.656C270.948 37.616 271.66 36.816 272.556 36.256C273.452 35.696 274.452 35.416 275.556 35.416ZM279.684 42.304C279.684 41.28 279.396 40.472 278.82 39.88C278.26 39.288 277.572 38.992 276.756 38.992C275.94 38.992 275.244 39.288 274.668 39.88C274.108 40.456 273.828 41.256 273.828 42.28C273.828 43.304 274.108 44.12 274.668 44.728C275.244 45.32 275.94 45.616 276.756 45.616C277.572 45.616 278.26 45.32 278.82 44.728C279.396 44.136 279.684 43.328 279.684 42.304ZM299.307 45.52V49H297.219C295.731 49 294.571 48.64 293.739 47.92C292.907 47.184 292.491 45.992 292.491 44.344V39.016H290.859V35.608H292.491V32.344H296.595V35.608H299.283V39.016H296.595V44.392C296.595 44.792 296.691 45.08 296.883 45.256C297.075 45.432 297.395 45.52 297.843 45.52H299.307ZM309.825 35.464C311.361 35.464 312.593 35.976 313.521 37C314.449 38.008 314.913 39.4 314.913 41.176V49H310.833V41.728C310.833 40.832 310.601 40.136 310.137 39.64C309.673 39.144 309.049 38.896 308.265 38.896C307.481 38.896 306.857 39.144 306.393 39.64C305.929 40.136 305.697 40.832 305.697 41.728V49H301.593V31.24H305.697V37.408C306.113 36.816 306.681 36.344 307.401 35.992C308.121 35.64 308.929 35.464 309.825 35.464ZM330.389 42.088C330.389 42.472 330.365 42.872 330.317 43.288H321.029C321.093 44.12 321.357 44.76 321.821 45.208C322.301 45.64 322.885 45.856 323.573 45.856C324.597 45.856 325.309 45.424 325.709 44.56H330.077C329.853 45.44 329.445 46.232 328.853 46.936C328.277 47.64 327.549 48.192 326.669 48.592C325.789 48.992 324.805 49.192 323.717 49.192C322.405 49.192 321.237 48.912 320.213 48.352C319.189 47.792 318.389 46.992 317.813 45.952C317.237 44.912 316.949 43.696 316.949 42.304C316.949 40.912 317.229 39.696 317.789 38.656C318.365 37.616 319.165 36.816 320.189 36.256C321.213 35.696 322.389 35.416 323.717 35.416C325.013 35.416 326.165 35.688 327.173 36.232C328.181 36.776 328.965 37.552 329.525 38.56C330.101 39.568 330.389 40.744 330.389 42.088ZM326.189 41.008C326.189 40.304 325.949 39.744 325.469 39.328C324.989 38.912 324.389 38.704 323.669 38.704C322.981 38.704 322.397 38.904 321.917 39.304C321.453 39.704 321.165 40.272 321.053 41.008H326.189ZM348.824 37.48C348.52 36.92 348.08 36.496 347.504 36.208C346.944 35.904 346.28 35.752 345.512 35.752C344.184 35.752 343.12 36.192 342.32 37.072C341.52 37.936 341.12 39.096 341.12 40.552C341.12 42.104 341.536 43.32 342.368 44.2C343.216 45.064 344.376 45.496 345.848 45.496C346.856 45.496 347.704 45.24 348.392 44.728C349.096 44.216 349.608 43.48 349.928 42.52H344.72V39.496H353.648V43.312C353.344 44.336 352.824 45.288 352.088 46.168C351.368 47.048 350.448 47.76 349.328 48.304C348.208 48.848 346.944 49.12 345.536 49.12C343.872 49.12 342.384 48.76 341.072 48.04C339.776 47.304 338.76 46.288 338.024 44.992C337.304 43.696 336.944 42.216 336.944 40.552C336.944 38.888 337.304 37.408 338.024 36.112C338.76 34.8 339.776 33.784 341.072 33.064C342.368 32.328 343.848 31.96 345.512 31.96C347.528 31.96 349.224 32.448 350.6 33.424C351.992 34.4 352.912 35.752 353.36 37.48H348.824ZM355.106 42.28C355.106 40.904 355.362 39.696 355.874 38.656C356.402 37.616 357.114 36.816 358.01 36.256C358.906 35.696 359.906 35.416 361.01 35.416C361.954 35.416 362.778 35.608 363.482 35.992C364.202 36.376 364.754 36.88 365.138 37.504V35.608H369.242V49H365.138V47.104C364.738 47.728 364.178 48.232 363.458 48.616C362.754 49 361.93 49.192 360.986 49.192C359.898 49.192 358.906 48.912 358.01 48.352C357.114 47.776 356.402 46.968 355.874 45.928C355.362 44.872 355.106 43.656 355.106 42.28ZM365.138 42.304C365.138 41.28 364.85 40.472 364.274 39.88C363.714 39.288 363.026 38.992 362.21 38.992C361.394 38.992 360.698 39.288 360.122 39.88C359.562 40.456 359.282 41.256 359.282 42.28C359.282 43.304 359.562 44.12 360.122 44.728C360.698 45.32 361.394 45.616 362.21 45.616C363.026 45.616 363.714 45.32 364.274 44.728C364.85 44.136 365.138 43.328 365.138 42.304ZM376.315 37.504C376.715 36.88 377.267 36.376 377.971 35.992C378.675 35.608 379.499 35.416 380.443 35.416C381.547 35.416 382.547 35.696 383.443 36.256C384.339 36.816 385.043 37.616 385.555 38.656C386.083 39.696 386.347 40.904 386.347 42.28C386.347 43.656 386.083 44.872 385.555 45.928C385.043 46.968 384.339 47.776 383.443 48.352C382.547 48.912 381.547 49.192 380.443 49.192C379.515 49.192 378.691 49 377.971 48.616C377.267 48.232 376.715 47.736 376.315 47.128V55.384H372.211V35.608H376.315V37.504ZM382.171 42.28C382.171 41.256 381.883 40.456 381.307 39.88C380.747 39.288 380.051 38.992 379.219 38.992C378.403 38.992 377.707 39.288 377.131 39.88C376.571 40.472 376.291 41.28 376.291 42.304C376.291 43.328 376.571 44.136 377.131 44.728C377.707 45.32 378.403 45.616 379.219 45.616C380.035 45.616 380.731 45.32 381.307 44.728C381.883 44.12 382.171 43.304 382.171 42.28Z" fill="white"/>
<path d="M543 -125C543 -90.9876 536.301 -57.3083 523.285 -25.885C510.269 5.53834 491.191 34.0903 467.141 58.1407C443.09 82.191 414.538 101.269 383.115 114.285C351.692 127.301 318.012 134 284 134C249.988 134 216.308 127.301 184.885 114.285C153.462 101.269 124.91 82.191 100.859 58.1406C76.809 34.0903 57.7312 5.53832 44.7152 -25.885C31.6992 -57.3083 25 -90.9877 25 -125C25 -159.012 31.6992 -192.692 44.7152 -224.115C57.7312 -255.538 76.809 -284.09 100.859 -308.141C124.91 -332.191 153.462 -351.269 184.885 -364.285C216.308 -377.301 249.988 -384 284 -384C318.012 -384 351.692 -377.301 383.115 -364.285C414.538 -351.269 443.09 -332.191 467.141 -308.141C491.191 -284.09 510.269 -255.538 523.285 -224.115C536.301 -192.692 543 -159.012 543 -125L543 -125Z" stroke="url(#paint0_linear_2023_18)" stroke-opacity="0.25" stroke-width="50"/>
<path d="M284.089 139.024H277.801L276.793 142H272.497L278.593 125.152H283.345L289.441 142H285.097L284.089 139.024ZM283.033 135.856L280.945 129.688L278.881 135.856H283.033ZM295.401 125.152V142H291.297V125.152H295.401Z" fill="#10F1C2"/>
<path d="M119.265 63.3034L117.152 65.8221L111.894 61.41L109.61 64.131L113.545 67.4324L111.493 69.8776L107.559 66.5762L103.177 71.7976L100.034 69.1596L110.863 56.2533L119.265 63.3034ZM116.67 83.119L118.074 75.9947L117.32 75.3622L113.232 80.2342L110.088 77.5962L120.918 64.6899L126.194 69.1174C127.211 69.971 127.926 70.8738 128.339 71.8258C128.764 72.788 128.892 73.7308 128.723 74.6541C128.564 75.5652 128.166 76.4007 127.528 77.1606C126.808 78.0186 125.92 78.579 124.864 78.8417C123.821 79.1147 122.709 78.9962 121.528 78.4862L120.218 86.0964L116.67 83.119ZM119.187 73.1376L121.135 74.7728C121.711 75.2562 122.259 75.4752 122.777 75.4298C123.308 75.3948 123.789 75.1198 124.221 74.6051C124.632 74.1148 124.809 73.6053 124.752 73.0766C124.706 72.5581 124.396 72.0572 123.82 71.5738L121.871 69.9386L119.187 73.1376ZM133.941 79.9103L131.751 82.521L135.961 86.0537L133.925 88.4805L129.714 84.9478L127.339 87.7791L132.1 91.7747L129.987 94.2934L122.081 87.6598L132.911 74.7535L140.817 81.3871L138.703 83.9058L133.941 79.9103ZM143.888 88.2565L141.697 90.8672L145.907 94.3999L143.871 96.8267L139.661 93.294L137.285 96.1253L142.047 100.121L139.933 102.64L132.028 96.006L142.858 83.0997L150.763 89.7333L148.65 92.252L143.888 88.2565Z" fill="white"/>
<path d="M424.878 82.5112L426.991 85.0299L421.733 89.442L424.016 92.163L427.951 88.8616L430.002 91.3068L426.068 94.6082L430.449 99.8296L427.305 102.468L416.476 89.5612L424.878 82.5112ZM443.942 88.5081L437.169 85.8884L436.415 86.5209L440.504 91.393L437.36 94.031L426.53 81.1247L431.806 76.6971C432.824 75.8435 433.837 75.2962 434.846 75.0551C435.868 74.8038 436.818 74.8415 437.698 75.1684C438.568 75.4829 439.322 76.0202 439.959 76.7801C440.679 77.6381 441.077 78.6098 441.152 79.6953C441.24 80.7705 440.93 81.845 440.223 82.9189L447.49 85.5308L443.942 88.5081ZM434.549 84.2963L436.498 82.6611C437.074 82.1777 437.384 81.6768 437.43 81.1584C437.487 80.6296 437.3 80.1079 436.868 79.5931C436.457 79.1028 435.986 78.8401 435.455 78.8051C434.937 78.7597 434.389 78.9787 433.813 79.4621L431.864 81.0973L434.549 84.2963ZM443.781 70.9418L445.971 73.5525L450.181 70.0197L452.218 72.4465L448.008 75.9793L450.383 78.8106L455.145 74.815L457.259 77.3338L449.353 83.9673L438.523 71.061L446.429 64.4274L448.542 66.9462L443.781 70.9418ZM453.727 62.5956L455.918 65.2063L460.128 61.6735L462.164 64.1003L457.954 67.6331L460.33 70.4644L465.092 66.4688L467.205 68.9876L459.3 75.6211L448.47 62.7148L456.376 56.0813L458.489 58.6L453.727 62.5956Z" fill="white"/>
<defs>
<linearGradient id="paint0_linear_2023_18" x1="284" y1="-409" x2="284" y2="159" gradientUnits="userSpaceOnUse">
<stop offset="0.929076" stop-color="#767676"/>
<stop offset="1" stop-color="white"/>
</linearGradient>
</defs>
</svg>
