<svg width="253" height="42" viewBox="0 0 253 42" fill="none" xmlns="http://www.w3.org/2000/svg">
<rect width="42" height="42" rx="21" fill="url(#paint0_linear_68_13)"/>
<path fill-rule="evenodd" clip-rule="evenodd" d="M18.1816 12.4725V10.4687H20.159V12.4725H21.9355C22.0031 12.4725 22.0701 12.4731 22.1364 12.4742V10.4687H24.1138V12.731C24.375 12.8025 24.6196 12.8888 24.8476 12.99C25.6252 13.335 26.2096 13.8139 26.601 14.4267C26.9923 15.0343 27.188 15.7347 27.188 16.5277C27.188 17.1456 27.0644 17.6889 26.8173 18.1575C26.5701 18.621 26.2302 19.002 25.7977 19.3007C25.3703 19.5942 24.8811 19.8028 24.3301 19.9264V20.0808C24.9325 20.1066 25.4964 20.2765 26.0217 20.5906C26.5521 20.9048 26.982 21.345 27.3116 21.9115C27.6412 22.4728 27.806 23.1422 27.806 23.9198C27.806 24.7591 27.5974 25.5084 27.1803 26.1675C26.7683 26.8215 26.1581 27.339 25.3497 27.7201C24.9775 27.8955 24.5656 28.0305 24.1138 28.1252V31.0205H22.1364V28.2917H20.159V31.0205H18.1816V28.2917H15.6017V12.4725H18.1816ZM21.6729 25.5573H18.9463V21.3553H21.7502C22.2857 21.3553 22.7466 21.4506 23.1328 21.6411C23.5242 21.8317 23.8254 22.0943 24.0365 22.429C24.2477 22.7637 24.3532 23.1499 24.3532 23.5876C24.3532 24.185 24.1395 24.6639 23.7121 25.0243C23.2847 25.3797 22.605 25.5573 21.6729 25.5573ZM21.4258 19.0921H18.9463V15.176H21.4875C22.2291 15.176 22.8007 15.351 23.2023 15.7012C23.6091 16.0514 23.8125 16.5122 23.8125 17.0838C23.8125 17.5009 23.707 17.8588 23.4958 18.1575C23.2899 18.4562 23.0066 18.6879 22.6462 18.8527C22.2909 19.0123 21.8841 19.0921 21.4258 19.0921Z" fill="white"/>
<path d="M21 3.5C17.5388 3.5 14.1554 4.52636 11.2775 6.44928C8.39966 8.37221 6.15664 11.1053 4.83211 14.303C3.50757 17.5007 3.16102 21.0194 3.83626 24.4141C4.5115 27.8087 6.17821 30.9269 8.62563 33.3744C11.0731 35.8218 14.1913 37.4885 17.5859 38.1637C20.9806 38.839 24.4993 38.4924 27.697 37.1679C30.8947 35.8434 33.6278 33.6003 35.5507 30.7225C37.4736 27.8446 38.5 24.4612 38.5 21L35 21C35 23.7689 34.1789 26.4757 32.6406 28.778C31.1022 31.0803 28.9157 32.8747 26.3576 33.9343C23.7994 34.9939 20.9845 35.2712 18.2687 34.731C15.553 34.1908 13.0584 32.8574 11.1005 30.8995C9.14257 28.9416 7.8092 26.447 7.26901 23.7313C6.72881 21.0155 7.00606 18.2006 8.06569 15.6424C9.12531 13.0843 10.9197 10.8978 13.222 9.35942C15.5243 7.82108 18.2311 7 21 7L21 3.5Z" fill="white"/>
<path d="M66.5365 34H54.6875V7.85938H65.8984C68.2682 7.85938 70.2248 8.55208 71.7682 9.9375C73.3238 11.3229 74.1016 12.9332 74.1016 14.7682C74.1016 15.4609 74.0043 16.1233 73.8099 16.7552C73.6154 17.375 73.3663 17.8915 73.0625 18.3047C72.7587 18.7179 72.4549 19.0764 72.151 19.3802C71.8594 19.6719 71.6163 19.8785 71.4219 20L71.112 20.1823C71.2335 20.2309 71.3854 20.3038 71.5677 20.401C71.7621 20.4861 72.1085 20.7109 72.6068 21.0755C73.105 21.428 73.5425 21.8168 73.9193 22.2422C74.296 22.6675 74.6363 23.2509 74.9401 23.9922C75.2561 24.7214 75.4141 25.5052 75.4141 26.3438C75.4141 28.434 74.5816 30.2326 72.9167 31.7396C71.2517 33.2465 69.125 34 66.5365 34ZM60.3021 29.3333H66.263C67.2838 29.3333 68.1285 29.0113 68.7969 28.3672C69.4774 27.7231 69.8177 26.9271 69.8177 25.9792C69.8177 25.0313 69.4774 24.2352 68.7969 23.5911C68.1285 22.9349 67.2838 22.6068 66.263 22.6068H60.3021V29.3333ZM65.5156 12.526H60.3021V18.1406H65.5156C66.4392 18.1406 67.1684 17.8854 67.7031 17.375C68.2378 16.8646 68.5052 16.184 68.5052 15.3333C68.5052 14.4826 68.2378 13.8021 67.7031 13.2917C67.1684 12.7813 66.4392 12.526 65.5156 12.526ZM84.7656 15.6979V34H79.7161V15.6979H84.7656ZM84.3281 8.44271C84.8628 8.95313 85.1302 9.63368 85.1302 10.4844C85.1302 11.3229 84.8628 11.9974 84.3281 12.5078C83.7934 13.0182 83.0642 13.2734 82.1406 13.2734C81.2899 13.2734 80.6094 13.0182 80.099 12.5078C79.6007 11.9974 79.3516 11.3229 79.3516 10.4844C79.3516 9.63368 79.6068 8.95313 80.1172 8.44271C80.6276 7.93229 81.3021 7.67708 82.1406 7.67708C83.0642 7.67708 83.7934 7.93229 84.3281 8.44271ZM92.0573 13.6563V10.3021H96.5417V16.0807H100.26V20.5651H96.5417V27.8385C96.5417 28.4097 96.7483 28.8958 97.1615 29.2969C97.5868 29.6979 98.1215 29.8984 98.7656 29.8984C99.0937 29.8984 99.4097 29.8681 99.7135 29.8073C100.03 29.7344 100.266 29.6615 100.424 29.5885L100.643 29.5156V33.8177C99.6467 34.1944 98.5226 34.3767 97.2708 34.3646C93.4184 34.3646 91.4922 32.25 91.4922 28.0208V20.5651H88.3203V16.0807H89.9974C90.5686 16.0807 91.0547 15.8559 91.4557 15.4063C91.8568 14.9566 92.0573 14.3733 92.0573 13.6563ZM117.451 26.3438C117.451 25.4688 117.007 24.7639 116.12 24.2292C115.245 23.6944 114.169 23.2509 112.893 22.8984C111.629 22.5339 110.365 22.1085 109.102 21.6224C107.85 21.1363 106.78 20.3342 105.893 19.2161C105.006 18.0981 104.562 16.6823 104.562 14.9688C104.562 12.8542 105.407 11.0495 107.096 9.55469C108.798 8.0599 111.003 7.3125 113.714 7.3125C114.783 7.3125 115.816 7.44011 116.812 7.69531C117.809 7.93837 118.623 8.23004 119.255 8.57031C119.899 8.89844 120.458 9.23872 120.932 9.59115C121.418 9.93142 121.765 10.2292 121.971 10.4844L122.299 10.849L118.945 14.4036C118.799 14.2335 118.593 14.0269 118.326 13.7839C118.07 13.5286 117.523 13.1944 116.685 12.7813C115.846 12.3681 114.983 12.1615 114.096 12.1615C113.027 12.1615 112.164 12.4349 111.508 12.9818C110.864 13.5286 110.542 14.191 110.542 14.9688C110.542 15.8438 110.979 16.5486 111.854 17.0833C112.741 17.6059 113.811 18.0495 115.062 18.4141C116.326 18.7786 117.59 19.204 118.854 19.6901C120.13 20.1762 121.212 20.9783 122.099 22.0964C122.986 23.2144 123.43 24.6302 123.43 26.3438C123.43 28.7622 122.549 30.737 120.786 32.2682C119.036 33.7995 116.618 34.5651 113.531 34.5651C112.316 34.5651 111.137 34.4132 109.995 34.1094C108.865 33.8177 107.929 33.4653 107.187 33.0521C106.458 32.6389 105.814 32.2196 105.255 31.7943C104.696 31.3689 104.295 31.0104 104.052 30.7188L103.633 30.263L107.005 26.9089C107.175 27.1033 107.412 27.3585 107.716 27.6745C108.032 27.9783 108.725 28.3915 109.794 28.9141C110.864 29.4366 111.982 29.6979 113.148 29.6979C114.497 29.6979 115.549 29.3819 116.302 28.75C117.068 28.1181 117.451 27.316 117.451 26.3438ZM150.099 34V23.9193C150.099 22.7526 149.819 21.8411 149.26 21.1849C148.701 20.5165 147.984 20.1823 147.109 20.1823C146.137 20.1823 145.335 20.5651 144.703 21.3307C144.071 22.0842 143.755 23.1354 143.755 24.4844V34H138.724V23.9193C138.724 22.7526 138.438 21.8411 137.867 21.1849C137.308 20.5165 136.597 20.1823 135.734 20.1823C134.762 20.1823 133.954 20.5651 133.31 21.3307C132.678 22.0842 132.362 23.1354 132.362 24.4844V34H127.331V15.6979H132.362V17.9401C132.483 17.7457 132.672 17.5087 132.927 17.2292C133.182 16.9375 133.723 16.5486 134.549 16.0625C135.388 15.5764 136.281 15.3333 137.229 15.3333C137.946 15.3333 138.621 15.4488 139.253 15.6797C139.885 15.8984 140.389 16.1597 140.766 16.4635C141.142 16.7552 141.464 17.059 141.732 17.375C142.011 17.6788 142.2 17.9462 142.297 18.1771L142.443 18.5052C142.491 18.4323 142.57 18.3229 142.68 18.1771C142.801 18.0191 143.05 17.7639 143.427 17.4115C143.816 17.0469 144.229 16.7248 144.667 16.4453C145.104 16.1536 145.675 15.8984 146.38 15.6797C147.097 15.4488 147.839 15.3333 148.604 15.3333C150.622 15.3333 152.214 16.0139 153.38 17.375C154.559 18.724 155.148 20.717 155.148 23.3542V34H150.099ZM170.078 34V32.1406C169.932 32.3108 169.726 32.5234 169.458 32.7786C169.203 33.0217 168.638 33.3498 167.763 33.763C166.888 34.1641 165.977 34.3646 165.029 34.3646C163.206 34.3646 161.723 33.8602 160.581 32.8516C159.438 31.8307 158.867 30.5972 158.867 29.151C158.867 27.6563 159.347 26.4106 160.307 25.4141C161.267 24.4175 162.592 23.7674 164.281 23.4635L170.078 22.4245C170.078 21.6589 169.799 21.033 169.24 20.5469C168.681 20.0608 167.903 19.8177 166.906 19.8177C166.08 19.8177 165.326 19.9757 164.646 20.2917C163.965 20.5955 163.485 20.9115 163.206 21.2396L162.786 21.6771L159.997 18.888C160.07 18.7908 160.168 18.6632 160.289 18.5052C160.423 18.3351 160.708 18.0495 161.146 17.6484C161.595 17.2474 162.082 16.895 162.604 16.5911C163.127 16.2752 163.813 15.9896 164.664 15.7344C165.515 15.467 166.384 15.3333 167.271 15.3333C169.58 15.3333 171.464 16.026 172.922 17.4115C174.38 18.7847 175.109 20.5165 175.109 22.6068V34H170.078ZM166.341 30.263C167.483 30.263 168.389 29.9045 169.057 29.1875C169.738 28.4583 170.078 27.4497 170.078 26.1615V25.5964L165.977 26.3438C164.603 26.5625 163.917 27.2491 163.917 28.4036C163.917 29.6432 164.725 30.263 166.341 30.263ZM190.987 15.5156V20.5651C190.61 20.4436 190.051 20.3767 189.31 20.3646C187.985 20.3646 186.934 20.7839 186.156 21.6224C185.391 22.4609 185.008 23.6641 185.008 25.2318V34H179.977V15.6979H185.008V17.9401C185.154 17.77 185.36 17.5512 185.628 17.2839C185.895 17.0043 186.478 16.6398 187.378 16.1901C188.289 15.7405 189.243 15.5156 190.24 15.5156H190.987ZM196.036 13.6563V10.3021H200.521V16.0807H204.24V20.5651H200.521V27.8385C200.521 28.4097 200.727 28.8958 201.141 29.2969C201.566 29.6979 202.101 29.8984 202.745 29.8984C203.073 29.8984 203.389 29.8681 203.693 29.8073C204.009 29.7344 204.246 29.6615 204.404 29.5885L204.622 29.5156V33.8177C203.626 34.1944 202.502 34.3767 201.25 34.3646C197.398 34.3646 195.471 32.25 195.471 28.0208V20.5651H192.299V16.0807H193.977C194.548 16.0807 195.034 15.8559 195.435 15.4063C195.836 14.9566 196.036 14.3733 196.036 13.6563Z" fill="white"/>
<path d="M231.146 22.9896L227.974 14.4036L224.784 22.9896H231.146ZM233.005 27.8385H222.924L220.682 34H214.703L224.984 7.85938H230.945L241.227 34H235.247L233.005 27.8385ZM249.083 15.6979V34H244.034V15.6979H249.083ZM248.646 8.44271C249.181 8.95313 249.448 9.63368 249.448 10.4844C249.448 11.3229 249.181 11.9974 248.646 12.5078C248.111 13.0182 247.382 13.2734 246.458 13.2734C245.608 13.2734 244.927 13.0182 244.417 12.5078C243.918 11.9974 243.669 11.3229 243.669 10.4844C243.669 9.63368 243.924 8.95313 244.435 8.44271C244.945 7.93229 245.62 7.67708 246.458 7.67708C247.382 7.67708 248.111 7.93229 248.646 8.44271Z" fill="#10F1C2"/>
<defs>
<linearGradient id="paint0_linear_68_13" x1="0" y1="21" x2="42" y2="21" gradientUnits="userSpaceOnUse">
<stop stop-color="#10F1C2"/>
<stop offset="1" stop-color="#008671"/>
</linearGradient>
</defs>
</svg>
