<svg width="568" height="159" viewBox="0 0 568 159" fill="none" xmlns="http://www.w3.org/2000/svg">
<path d="M543 284C543 318.012 536.301 351.692 523.285 383.115C510.269 414.538 491.191 443.09 467.141 467.141C443.09 491.191 414.538 510.269 383.115 523.285C351.692 536.301 318.012 543 284 543C249.988 543 216.308 536.301 184.885 523.285C153.462 510.269 124.91 491.191 100.859 467.141C76.809 443.09 57.7312 414.538 44.7152 383.115C31.6992 351.692 25 318.012 25 284C25 249.988 31.6992 216.308 44.7152 184.885C57.7312 153.462 76.809 124.91 100.859 100.859C124.91 76.809 153.462 57.7312 184.885 44.7152C216.308 31.6992 249.988 25 284 25C318.012 25 351.692 31.6992 383.115 44.7152C414.538 57.7312 443.09 76.809 467.141 100.859C491.191 124.91 510.269 153.462 523.285 184.885C536.301 216.308 543 249.988 543 284L543 284Z" stroke="url(#paint0_linear_2023_19)" stroke-opacity="0.25" stroke-width="50"/>
<path d="M150.186 126.168C148.954 126.168 147.85 125.968 146.874 125.568C145.898 125.168 145.114 124.576 144.522 123.792C143.946 123.008 143.642 122.064 143.61 120.96H147.978C148.042 121.584 148.258 122.064 148.626 122.4C148.994 122.72 149.474 122.88 150.066 122.88C150.674 122.88 151.154 122.744 151.506 122.472C151.858 122.184 152.034 121.792 152.034 121.296C152.034 120.88 151.89 120.536 151.602 120.264C151.33 119.992 150.986 119.768 150.57 119.592C150.17 119.416 149.594 119.216 148.842 118.992C147.754 118.656 146.866 118.32 146.178 117.984C145.49 117.648 144.898 117.152 144.402 116.496C143.906 115.84 143.658 114.984 143.658 113.928C143.658 112.36 144.226 111.136 145.362 110.256C146.498 109.36 147.978 108.912 149.802 108.912C151.658 108.912 153.154 109.36 154.29 110.256C155.426 111.136 156.034 112.368 156.114 113.952H151.674C151.642 113.408 151.442 112.984 151.074 112.68C150.706 112.36 150.234 112.2 149.658 112.2C149.162 112.2 148.762 112.336 148.458 112.608C148.154 112.864 148.002 113.24 148.002 113.736C148.002 114.28 148.258 114.704 148.77 115.008C149.282 115.312 150.082 115.64 151.17 115.992C152.258 116.36 153.138 116.712 153.81 117.048C154.498 117.384 155.09 117.872 155.586 118.512C156.082 119.152 156.33 119.976 156.33 120.984C156.33 121.944 156.082 122.816 155.586 123.6C155.106 124.384 154.402 125.008 153.474 125.472C152.546 125.936 151.45 126.168 150.186 126.168ZM171.479 119.088C171.479 119.472 171.455 119.872 171.407 120.288H162.119C162.183 121.12 162.447 121.76 162.911 122.208C163.391 122.64 163.975 122.856 164.663 122.856C165.687 122.856 166.399 122.424 166.799 121.56H171.167C170.943 122.44 170.535 123.232 169.943 123.936C169.367 124.64 168.639 125.192 167.759 125.592C166.879 125.992 165.895 126.192 164.807 126.192C163.495 126.192 162.327 125.912 161.303 125.352C160.279 124.792 159.479 123.992 158.903 122.952C158.327 121.912 158.039 120.696 158.039 119.304C158.039 117.912 158.319 116.696 158.879 115.656C159.455 114.616 160.255 113.816 161.279 113.256C162.303 112.696 163.479 112.416 164.807 112.416C166.103 112.416 167.255 112.688 168.263 113.232C169.271 113.776 170.055 114.552 170.615 115.56C171.191 116.568 171.479 117.744 171.479 119.088ZM167.279 118.008C167.279 117.304 167.039 116.744 166.559 116.328C166.079 115.912 165.479 115.704 164.759 115.704C164.071 115.704 163.487 115.904 163.007 116.304C162.543 116.704 162.255 117.272 162.143 118.008H167.279ZM172.828 119.28C172.828 117.904 173.084 116.696 173.596 115.656C174.124 114.616 174.836 113.816 175.732 113.256C176.628 112.696 177.628 112.416 178.732 112.416C179.676 112.416 180.5 112.608 181.204 112.992C181.924 113.376 182.476 113.88 182.86 114.504V112.608H186.964V126H182.86V124.104C182.46 124.728 181.9 125.232 181.18 125.616C180.476 126 179.652 126.192 178.708 126.192C177.62 126.192 176.628 125.912 175.732 125.352C174.836 124.776 174.124 123.968 173.596 122.928C173.084 121.872 172.828 120.656 172.828 119.28ZM182.86 119.304C182.86 118.28 182.572 117.472 181.996 116.88C181.436 116.288 180.748 115.992 179.932 115.992C179.116 115.992 178.42 116.288 177.844 116.88C177.284 117.456 177.004 118.256 177.004 119.28C177.004 120.304 177.284 121.12 177.844 121.728C178.42 122.32 179.116 122.616 179.932 122.616C180.748 122.616 181.436 122.32 181.996 121.728C182.572 121.136 182.86 120.328 182.86 119.304ZM207.021 112.464C208.685 112.464 210.005 112.968 210.981 113.976C211.973 114.984 212.469 116.384 212.469 118.176V126H208.389V118.728C208.389 117.864 208.157 117.2 207.693 116.736C207.245 116.256 206.621 116.016 205.821 116.016C205.021 116.016 204.389 116.256 203.925 116.736C203.477 117.2 203.253 117.864 203.253 118.728V126H199.173V118.728C199.173 117.864 198.941 117.2 198.477 116.736C198.029 116.256 197.405 116.016 196.605 116.016C195.805 116.016 195.173 116.256 194.709 116.736C194.261 117.2 194.037 117.864 194.037 118.728V126H189.933V112.608H194.037V114.288C194.453 113.728 194.997 113.288 195.669 112.968C196.341 112.632 197.101 112.464 197.949 112.464C198.957 112.464 199.853 112.68 200.637 113.112C201.437 113.544 202.061 114.16 202.509 114.96C202.973 114.224 203.605 113.624 204.405 113.16C205.205 112.696 206.077 112.464 207.021 112.464ZM219.444 108.24V126H215.34V108.24H219.444ZM235.042 119.088C235.042 119.472 235.018 119.872 234.97 120.288H225.682C225.746 121.12 226.01 121.76 226.474 122.208C226.954 122.64 227.538 122.856 228.226 122.856C229.25 122.856 229.962 122.424 230.362 121.56H234.73C234.506 122.44 234.098 123.232 233.506 123.936C232.93 124.64 232.202 125.192 231.322 125.592C230.442 125.992 229.458 126.192 228.37 126.192C227.058 126.192 225.89 125.912 224.866 125.352C223.842 124.792 223.042 123.992 222.466 122.952C221.89 121.912 221.602 120.696 221.602 119.304C221.602 117.912 221.882 116.696 222.442 115.656C223.018 114.616 223.818 113.816 224.842 113.256C225.866 112.696 227.042 112.416 228.37 112.416C229.666 112.416 230.818 112.688 231.826 113.232C232.834 113.776 233.618 114.552 234.178 115.56C234.754 116.568 235.042 117.744 235.042 119.088ZM230.842 118.008C230.842 117.304 230.602 116.744 230.122 116.328C229.642 115.912 229.042 115.704 228.322 115.704C227.634 115.704 227.05 115.904 226.57 116.304C226.106 116.704 225.818 117.272 225.706 118.008H230.842ZM242.655 126.192C241.487 126.192 240.447 125.992 239.535 125.592C238.623 125.192 237.903 124.648 237.375 123.96C236.847 123.256 236.551 122.472 236.487 121.608H240.543C240.591 122.072 240.807 122.448 241.191 122.736C241.575 123.024 242.047 123.168 242.607 123.168C243.119 123.168 243.511 123.072 243.783 122.88C244.071 122.672 244.215 122.408 244.215 122.088C244.215 121.704 244.015 121.424 243.615 121.248C243.215 121.056 242.567 120.848 241.671 120.624C240.711 120.4 239.911 120.168 239.271 119.928C238.631 119.672 238.079 119.28 237.615 118.752C237.151 118.208 236.919 117.48 236.919 116.568C236.919 115.8 237.127 115.104 237.543 114.48C237.975 113.84 238.599 113.336 239.415 112.968C240.247 112.6 241.231 112.416 242.367 112.416C244.047 112.416 245.367 112.832 246.327 113.664C247.303 114.496 247.863 115.6 248.007 116.976H244.215C244.151 116.512 243.943 116.144 243.591 115.872C243.255 115.6 242.807 115.464 242.247 115.464C241.767 115.464 241.399 115.56 241.143 115.752C240.887 115.928 240.759 116.176 240.759 116.496C240.759 116.88 240.959 117.168 241.359 117.36C241.775 117.552 242.415 117.744 243.279 117.936C244.271 118.192 245.079 118.448 245.703 118.704C246.327 118.944 246.871 119.344 247.335 119.904C247.815 120.448 248.063 121.184 248.079 122.112C248.079 122.896 247.855 123.6 247.407 124.224C246.975 124.832 246.343 125.312 245.511 125.664C244.695 126.016 243.743 126.192 242.655 126.192ZM256.038 126.192C254.87 126.192 253.83 125.992 252.918 125.592C252.006 125.192 251.286 124.648 250.758 123.96C250.23 123.256 249.934 122.472 249.87 121.608H253.926C253.974 122.072 254.19 122.448 254.574 122.736C254.958 123.024 255.43 123.168 255.99 123.168C256.502 123.168 256.894 123.072 257.166 122.88C257.454 122.672 257.598 122.408 257.598 122.088C257.598 121.704 257.398 121.424 256.998 121.248C256.598 121.056 255.95 120.848 255.054 120.624C254.094 120.4 253.294 120.168 252.654 119.928C252.014 119.672 251.462 119.28 250.998 118.752C250.534 118.208 250.302 117.48 250.302 116.568C250.302 115.8 250.51 115.104 250.926 114.48C251.358 113.84 251.982 113.336 252.798 112.968C253.63 112.6 254.614 112.416 255.75 112.416C257.43 112.416 258.75 112.832 259.71 113.664C260.686 114.496 261.246 115.6 261.39 116.976H257.598C257.534 116.512 257.326 116.144 256.974 115.872C256.638 115.6 256.19 115.464 255.63 115.464C255.15 115.464 254.782 115.56 254.526 115.752C254.27 115.928 254.142 116.176 254.142 116.496C254.142 116.88 254.342 117.168 254.742 117.36C255.158 117.552 255.798 117.744 256.662 117.936C257.654 118.192 258.462 118.448 259.086 118.704C259.71 118.944 260.254 119.344 260.718 119.904C261.198 120.448 261.446 121.184 261.462 122.112C261.462 122.896 261.238 123.6 260.79 124.224C260.358 124.832 259.726 125.312 258.894 125.664C258.078 126.016 257.126 126.192 256.038 126.192ZM279.546 123.024H273.258L272.25 126H267.954L274.05 109.152H278.802L284.898 126H280.554L279.546 123.024ZM278.49 119.856L276.402 113.688L274.338 119.856H278.49ZM285.938 119.304C285.938 117.912 286.218 116.696 286.778 115.656C287.354 114.616 288.146 113.816 289.154 113.256C290.178 112.696 291.346 112.416 292.658 112.416C294.338 112.416 295.738 112.856 296.858 113.736C297.994 114.616 298.738 115.856 299.09 117.456H294.722C294.354 116.432 293.642 115.92 292.586 115.92C291.834 115.92 291.234 116.216 290.786 116.808C290.338 117.384 290.114 118.216 290.114 119.304C290.114 120.392 290.338 121.232 290.786 121.824C291.234 122.4 291.834 122.688 292.586 122.688C293.642 122.688 294.354 122.176 294.722 121.152H299.09C298.738 122.72 297.994 123.952 296.858 124.848C295.722 125.744 294.322 126.192 292.658 126.192C291.346 126.192 290.178 125.912 289.154 125.352C288.146 124.792 287.354 123.992 286.778 122.952C286.218 121.912 285.938 120.696 285.938 119.304ZM300.469 119.304C300.469 117.912 300.749 116.696 301.309 115.656C301.885 114.616 302.677 113.816 303.685 113.256C304.709 112.696 305.877 112.416 307.189 112.416C308.869 112.416 310.269 112.856 311.389 113.736C312.525 114.616 313.269 115.856 313.621 117.456H309.253C308.885 116.432 308.173 115.92 307.117 115.92C306.365 115.92 305.765 116.216 305.317 116.808C304.869 117.384 304.645 118.216 304.645 119.304C304.645 120.392 304.869 121.232 305.317 121.824C305.765 122.4 306.365 122.688 307.117 122.688C308.173 122.688 308.885 122.176 309.253 121.152H313.621C313.269 122.72 312.525 123.952 311.389 124.848C310.253 125.744 308.853 126.192 307.189 126.192C305.877 126.192 304.709 125.912 303.685 125.352C302.677 124.792 301.885 123.992 301.309 122.952C300.749 121.912 300.469 120.696 300.469 119.304ZM328.44 119.088C328.44 119.472 328.416 119.872 328.368 120.288H319.08C319.144 121.12 319.408 121.76 319.872 122.208C320.352 122.64 320.936 122.856 321.624 122.856C322.648 122.856 323.36 122.424 323.76 121.56H328.128C327.904 122.44 327.496 123.232 326.904 123.936C326.328 124.64 325.6 125.192 324.72 125.592C323.84 125.992 322.856 126.192 321.768 126.192C320.456 126.192 319.288 125.912 318.264 125.352C317.24 124.792 316.44 123.992 315.864 122.952C315.288 121.912 315 120.696 315 119.304C315 117.912 315.28 116.696 315.84 115.656C316.416 114.616 317.216 113.816 318.24 113.256C319.264 112.696 320.44 112.416 321.768 112.416C323.064 112.416 324.216 112.688 325.224 113.232C326.232 113.776 327.016 114.552 327.576 115.56C328.152 116.568 328.44 117.744 328.44 119.088ZM324.24 118.008C324.24 117.304 324 116.744 323.52 116.328C323.04 115.912 322.44 115.704 321.72 115.704C321.032 115.704 320.448 115.904 319.968 116.304C319.504 116.704 319.216 117.272 319.104 118.008H324.24ZM336.053 126.192C334.885 126.192 333.845 125.992 332.933 125.592C332.021 125.192 331.301 124.648 330.773 123.96C330.245 123.256 329.949 122.472 329.885 121.608H333.941C333.989 122.072 334.205 122.448 334.589 122.736C334.973 123.024 335.445 123.168 336.005 123.168C336.517 123.168 336.909 123.072 337.181 122.88C337.469 122.672 337.613 122.408 337.613 122.088C337.613 121.704 337.413 121.424 337.013 121.248C336.613 121.056 335.965 120.848 335.069 120.624C334.109 120.4 333.309 120.168 332.669 119.928C332.029 119.672 331.477 119.28 331.013 118.752C330.549 118.208 330.317 117.48 330.317 116.568C330.317 115.8 330.525 115.104 330.941 114.48C331.373 113.84 331.997 113.336 332.813 112.968C333.645 112.6 334.629 112.416 335.765 112.416C337.445 112.416 338.765 112.832 339.725 113.664C340.701 114.496 341.261 115.6 341.405 116.976H337.613C337.549 116.512 337.341 116.144 336.989 115.872C336.653 115.6 336.205 115.464 335.645 115.464C335.165 115.464 334.797 115.56 334.541 115.752C334.285 115.928 334.157 116.176 334.157 116.496C334.157 116.88 334.357 117.168 334.757 117.36C335.173 117.552 335.813 117.744 336.677 117.936C337.669 118.192 338.477 118.448 339.101 118.704C339.725 118.944 340.269 119.344 340.733 119.904C341.213 120.448 341.461 121.184 341.477 122.112C341.477 122.896 341.253 123.6 340.805 124.224C340.373 124.832 339.741 125.312 338.909 125.664C338.093 126.016 337.141 126.192 336.053 126.192ZM349.436 126.192C348.268 126.192 347.228 125.992 346.316 125.592C345.404 125.192 344.684 124.648 344.156 123.96C343.628 123.256 343.332 122.472 343.268 121.608H347.324C347.372 122.072 347.588 122.448 347.972 122.736C348.356 123.024 348.828 123.168 349.388 123.168C349.9 123.168 350.292 123.072 350.564 122.88C350.852 122.672 350.996 122.408 350.996 122.088C350.996 121.704 350.796 121.424 350.396 121.248C349.996 121.056 349.348 120.848 348.452 120.624C347.492 120.4 346.692 120.168 346.052 119.928C345.412 119.672 344.86 119.28 344.396 118.752C343.932 118.208 343.7 117.48 343.7 116.568C343.7 115.8 343.908 115.104 344.324 114.48C344.756 113.84 345.38 113.336 346.196 112.968C347.028 112.6 348.012 112.416 349.148 112.416C350.828 112.416 352.148 112.832 353.108 113.664C354.084 114.496 354.644 115.6 354.788 116.976H350.996C350.932 116.512 350.724 116.144 350.372 115.872C350.036 115.6 349.588 115.464 349.028 115.464C348.548 115.464 348.18 115.56 347.924 115.752C347.668 115.928 347.54 116.176 347.54 116.496C347.54 116.88 347.74 117.168 348.14 117.36C348.556 117.552 349.196 117.744 350.06 117.936C351.052 118.192 351.86 118.448 352.484 118.704C353.108 118.944 353.652 119.344 354.116 119.904C354.596 120.448 354.844 121.184 354.86 122.112C354.86 122.896 354.636 123.6 354.188 124.224C353.756 124.832 353.124 125.312 352.292 125.664C351.476 126.016 350.524 126.192 349.436 126.192ZM359.435 111.216C358.715 111.216 358.123 111.008 357.659 110.592C357.211 110.16 356.987 109.632 356.987 109.008C356.987 108.368 357.211 107.84 357.659 107.424C358.123 106.992 358.715 106.776 359.435 106.776C360.139 106.776 360.715 106.992 361.163 107.424C361.627 107.84 361.859 108.368 361.859 109.008C361.859 109.632 361.627 110.16 361.163 110.592C360.715 111.008 360.139 111.216 359.435 111.216ZM361.475 112.608V126H357.371V112.608H361.475ZM368.553 114.504C368.937 113.88 369.489 113.376 370.209 112.992C370.929 112.608 371.753 112.416 372.681 112.416C373.785 112.416 374.785 112.696 375.681 113.256C376.577 113.816 377.281 114.616 377.793 115.656C378.321 116.696 378.585 117.904 378.585 119.28C378.585 120.656 378.321 121.872 377.793 122.928C377.281 123.968 376.577 124.776 375.681 125.352C374.785 125.912 373.785 126.192 372.681 126.192C371.737 126.192 370.913 126.008 370.209 125.64C369.505 125.256 368.953 124.752 368.553 124.128V126H364.449V108.24H368.553V114.504ZM374.409 119.28C374.409 118.256 374.121 117.456 373.545 116.88C372.985 116.288 372.289 115.992 371.457 115.992C370.641 115.992 369.945 116.288 369.369 116.88C368.809 117.472 368.529 118.28 368.529 119.304C368.529 120.328 368.809 121.136 369.369 121.728C369.945 122.32 370.641 122.616 371.457 122.616C372.273 122.616 372.969 122.32 373.545 121.728C374.121 121.12 374.409 120.304 374.409 119.28ZM382.802 111.216C382.082 111.216 381.49 111.008 381.026 110.592C380.578 110.16 380.354 109.632 380.354 109.008C380.354 108.368 380.578 107.84 381.026 107.424C381.49 106.992 382.082 106.776 382.802 106.776C383.506 106.776 384.082 106.992 384.53 107.424C384.994 107.84 385.226 108.368 385.226 109.008C385.226 109.632 384.994 110.16 384.53 110.592C384.082 111.008 383.506 111.216 382.802 111.216ZM384.842 112.608V126H380.738V112.608H384.842ZM391.92 108.24V126H387.816V108.24H391.92ZM396.958 111.216C396.238 111.216 395.646 111.008 395.182 110.592C394.734 110.16 394.51 109.632 394.51 109.008C394.51 108.368 394.734 107.84 395.182 107.424C395.646 106.992 396.238 106.776 396.958 106.776C397.662 106.776 398.238 106.992 398.686 107.424C399.15 107.84 399.382 108.368 399.382 109.008C399.382 109.632 399.15 110.16 398.686 110.592C398.238 111.008 397.662 111.216 396.958 111.216ZM398.998 112.608V126H394.894V112.608H398.998ZM409.436 122.52V126H407.348C405.86 126 404.7 125.64 403.868 124.92C403.036 124.184 402.62 122.992 402.62 121.344V116.016H400.988V112.608H402.62V109.344H406.724V112.608H409.412V116.016H406.724V121.392C406.724 121.792 406.82 122.08 407.012 122.256C407.204 122.432 407.524 122.52 407.972 122.52H409.436ZM425.402 112.608L417.002 132.36H412.586L415.658 125.544L410.21 112.608H414.794L417.89 120.984L420.962 112.608H425.402Z" fill="white"/>
<path d="M236.739 27.36C237.715 27.568 238.499 28.056 239.091 28.824C239.683 29.576 239.979 30.44 239.979 31.416C239.979 32.824 239.483 33.944 238.491 34.776C237.515 35.592 236.147 36 234.387 36H226.539V19.152H234.123C235.835 19.152 237.171 19.544 238.131 20.328C239.107 21.112 239.595 22.176 239.595 23.52C239.595 24.512 239.331 25.336 238.803 25.992C238.291 26.648 237.603 27.104 236.739 27.36ZM230.643 25.968H233.331C234.003 25.968 234.515 25.824 234.867 25.536C235.235 25.232 235.419 24.792 235.419 24.216C235.419 23.64 235.235 23.2 234.867 22.896C234.515 22.592 234.003 22.44 233.331 22.44H230.643V25.968ZM233.667 32.688C234.355 32.688 234.883 32.536 235.251 32.232C235.635 31.912 235.827 31.456 235.827 30.864C235.827 30.272 235.627 29.808 235.227 29.472C234.843 29.136 234.307 28.968 233.619 28.968H230.643V32.688H233.667ZM246.463 22.44V25.848H251.959V29.016H246.463V32.712H252.679V36H242.359V19.152H252.679V22.44H246.463ZM266.527 24.48C266.223 23.92 265.783 23.496 265.207 23.208C264.647 22.904 263.983 22.752 263.215 22.752C261.887 22.752 260.823 23.192 260.023 24.072C259.223 24.936 258.823 26.096 258.823 27.552C258.823 29.104 259.239 30.32 260.071 31.2C260.919 32.064 262.079 32.496 263.551 32.496C264.559 32.496 265.407 32.24 266.095 31.728C266.799 31.216 267.311 30.48 267.631 29.52H262.423V26.496H271.351V30.312C271.047 31.336 270.527 32.288 269.791 33.168C269.071 34.048 268.151 34.76 267.031 35.304C265.911 35.848 264.647 36.12 263.239 36.12C261.575 36.12 260.087 35.76 258.775 35.04C257.479 34.304 256.463 33.288 255.727 31.992C255.007 30.696 254.647 29.216 254.647 27.552C254.647 25.888 255.007 24.408 255.727 23.112C256.463 21.8 257.479 20.784 258.775 20.064C260.071 19.328 261.551 18.96 263.215 18.96C265.231 18.96 266.927 19.448 268.303 20.424C269.695 21.4 270.615 22.752 271.063 24.48H266.527ZM277.729 19.152V36H273.625V19.152H277.729ZM295.775 36H291.671L284.807 25.608V36H280.703V19.152H284.807L291.671 29.592V19.152H295.775V36ZM313.822 36H309.718L302.854 25.608V36H298.75V19.152H302.854L309.718 29.592V19.152H313.822V36ZM320.901 22.44V25.848H326.397V29.016H320.901V32.712H327.117V36H316.797V19.152H327.117V22.44H320.901ZM338.373 36L334.869 29.64H333.885V36H329.781V19.152H336.669C337.997 19.152 339.125 19.384 340.053 19.848C340.997 20.312 341.701 20.952 342.165 21.768C342.629 22.568 342.861 23.464 342.861 24.456C342.861 25.576 342.541 26.576 341.901 27.456C341.277 28.336 340.349 28.96 339.117 29.328L343.005 36H338.373ZM333.885 26.736H336.429C337.181 26.736 337.741 26.552 338.109 26.184C338.493 25.816 338.685 25.296 338.685 24.624C338.685 23.984 338.493 23.48 338.109 23.112C337.741 22.744 337.181 22.56 336.429 22.56H333.885V26.736Z" fill="#10F1C2"/>
<path d="M115.024 85.0293C115.651 85.7769 116.055 86.6073 116.237 87.5203C116.408 88.4211 116.297 89.3598 115.905 90.3362C115.513 91.3127 114.79 92.2432 113.736 93.1277L111.787 94.7629L115.675 99.3959L112.531 102.034L101.701 89.1276L106.794 84.8544C107.823 83.9905 108.843 83.438 109.852 83.1969C110.861 82.9559 111.806 82.9987 112.686 83.3256C113.566 83.6524 114.345 84.2203 115.024 85.0293ZM111.399 90.8278C111.999 90.3239 112.329 89.8076 112.386 89.2788C112.444 88.7501 112.257 88.2283 111.825 87.7135C111.393 87.1988 110.911 86.9238 110.381 86.8888C109.85 86.8537 109.284 87.0881 108.684 87.5921L106.974 89.0268L109.689 92.2625L111.399 90.8278ZM130.585 86.8844L123.813 84.2647L123.059 84.8972L127.147 89.7692L124.004 92.4072L113.174 79.5009L118.45 75.0734C119.468 74.2197 120.481 73.6724 121.49 73.4313C122.512 73.18 123.462 73.2177 124.342 73.5446C125.212 73.8592 125.965 74.3964 126.603 75.1563C127.323 76.0143 127.721 76.986 127.796 78.0715C127.884 79.1467 127.574 80.2213 126.867 81.2951L134.134 83.907L130.585 86.8844ZM121.193 82.6726L123.141 81.0373C123.718 80.5539 124.028 80.053 124.074 79.5346C124.131 79.0058 123.944 78.4841 123.512 77.9693C123.101 77.479 122.63 77.2164 122.099 77.1813C121.581 77.1359 121.033 77.3549 120.457 77.8383L118.508 79.4736L121.193 82.6726ZM142.209 77.3505C140.995 78.3687 139.644 79.0227 138.153 79.3125C136.675 79.592 135.214 79.4812 133.77 78.9801C132.328 78.4565 131.077 77.5634 130.018 76.301C128.959 75.0386 128.302 73.658 128.047 72.1593C127.804 70.6503 127.948 69.1922 128.48 67.7851C129.025 66.3676 129.903 65.1498 131.117 64.1317C132.33 63.1135 133.676 62.4646 135.154 62.1851C136.645 61.8953 138.1 62.0112 139.519 62.5329C140.951 63.0443 142.196 63.9312 143.255 65.1936C144.315 66.4561 144.977 67.8428 145.242 69.3537C145.497 70.8525 145.359 72.3054 144.827 73.7125C144.295 75.1197 143.422 76.3323 142.209 77.3505ZM139.802 74.4824C140.832 73.6185 141.365 72.5863 141.402 71.3857C141.451 70.1748 141.003 69.0055 140.056 67.8779C139.1 66.738 138.026 66.0933 136.836 65.9437C135.647 65.7716 134.538 66.1174 133.508 66.9813C132.466 67.8555 131.916 68.8919 131.856 70.0906C131.809 71.2789 132.269 72.4492 133.236 73.6013C134.192 74.7412 135.265 75.3972 136.453 75.5693C137.644 75.7189 138.76 75.3566 139.802 74.4824Z" fill="white"/>
<path d="M437.296 71.7704C436.668 72.518 435.921 73.0604 435.053 73.3976C434.196 73.7224 433.252 73.7766 432.222 73.56C431.193 73.3435 430.151 72.793 429.097 71.9085L427.148 70.2732L423.26 74.9063L420.116 72.2683L430.946 59.362L436.039 63.6352C437.068 64.4991 437.789 65.407 438.202 66.359C438.615 67.311 438.737 68.2486 438.567 69.1719C438.398 70.0953 437.974 70.9614 437.296 71.7704ZM430.956 69.2076C431.556 69.7115 432.122 69.946 432.653 69.9109C433.183 69.8758 433.665 69.6009 434.097 69.0861C434.529 68.5713 434.716 68.0496 434.658 67.5208C434.601 66.9921 434.271 66.4757 433.671 65.9718L431.961 64.5371L429.246 67.7729L430.956 69.2076ZM438.171 87.4179L439.575 80.2935L438.821 79.661L434.733 84.533L431.589 81.895L442.419 68.9887L447.695 73.4162C448.713 74.2699 449.428 75.1726 449.84 76.1246C450.265 77.0868 450.393 78.0296 450.224 78.953C450.065 79.8641 449.667 80.6996 449.029 81.4595C448.309 82.3174 447.422 82.8778 446.366 83.1405C445.322 83.4135 444.21 83.2951 443.03 82.785L441.719 90.3953L438.171 87.4179ZM440.688 77.4364L442.637 79.0716C443.213 79.555 443.76 79.774 444.278 79.7287C444.809 79.6936 445.29 79.4187 445.722 78.9039C446.134 78.4136 446.311 77.9041 446.253 77.3754C446.208 76.8569 445.897 76.356 445.321 75.8726L443.372 74.2374L440.688 77.4364ZM449.578 97.2091C448.365 96.1909 447.486 94.9731 446.942 93.5557C446.41 92.1485 446.265 90.6905 446.508 89.1815C446.773 87.6705 447.436 86.2838 448.495 85.0214C449.554 83.7589 450.8 82.872 452.232 82.3606C453.675 81.8595 455.136 81.7487 456.615 82.0283C458.105 82.3181 459.457 82.9721 460.67 83.9902C461.884 85.0084 462.756 86.2211 463.288 87.6282C463.833 89.0456 463.971 90.4986 463.704 91.987C463.449 93.4857 462.792 94.8663 461.732 96.1287C460.673 97.3912 459.422 98.2842 457.98 98.8079C456.549 99.3193 455.094 99.4352 453.616 99.1557C452.138 98.8761 450.792 98.2273 449.578 97.2091ZM451.985 94.341C453.015 95.2049 454.124 95.5508 455.312 95.3787C456.514 95.2168 457.587 94.5721 458.533 93.4445C459.49 92.3046 459.938 91.1353 459.879 89.9367C459.842 88.7361 459.309 87.7038 458.279 86.8399C457.237 85.9657 456.121 85.6034 454.93 85.753C453.752 85.9129 452.679 86.5689 451.712 87.7211C450.756 88.8609 450.296 90.0312 450.333 91.2318C450.393 92.4304 450.943 93.4668 451.985 94.341Z" fill="white"/>
<defs>
<linearGradient id="paint0_linear_2023_19" x1="284" y1="0" x2="284" y2="568" gradientUnits="userSpaceOnUse">
<stop offset="0.929076" stop-color="#767676"/>
<stop offset="1" stop-color="white"/>
</linearGradient>
</defs>
</svg>
