<svg width="328" height="126" viewBox="0 0 328 126" fill="none" xmlns="http://www.w3.org/2000/svg">
<path d="M423 284C423 318.012 416.301 351.692 403.285 383.115C390.269 414.538 371.191 443.09 347.141 467.141C323.09 491.191 294.538 510.269 263.115 523.285C231.692 536.301 198.012 543 164 543C129.988 543 96.3083 536.301 64.885 523.285C33.4617 510.269 4.9097 491.191 -19.1407 467.141C-43.191 443.09 -62.2688 414.538 -75.2848 383.115C-88.3008 351.692 -95 318.012 -95 284C-95 249.988 -88.3008 216.308 -75.2848 184.885C-62.2688 153.462 -43.191 124.91 -19.1406 100.859C4.90974 76.809 33.4617 57.7312 64.885 44.7152C96.3083 31.6992 129.988 25 164 25C198.012 25 231.692 31.6992 263.115 44.7152C294.538 57.7312 323.09 76.809 347.141 100.859C371.191 124.91 390.269 153.462 403.285 184.885C416.301 216.308 423 249.988 423 284L423 284Z" stroke="url(#paint0_linear_2061_3)" stroke-opacity="0.25" stroke-width="50"/>
<path d="M52.488 99.14C51.4613 99.14 50.5413 98.9733 49.728 98.64C48.9146 98.3067 48.2613 97.8133 47.768 97.16C47.288 96.5067 47.0346 95.72 47.008 94.8H50.648C50.7013 95.32 50.8813 95.72 51.188 96C51.4946 96.2667 51.8946 96.4 52.388 96.4C52.8946 96.4 53.2946 96.2867 53.588 96.06C53.8813 95.82 54.028 95.4933 54.028 95.08C54.028 94.7333 53.908 94.4467 53.668 94.22C53.4413 93.9933 53.1546 93.8067 52.808 93.66C52.4746 93.5133 51.9946 93.3467 51.368 93.16C50.4613 92.88 49.7213 92.6 49.148 92.32C48.5746 92.04 48.0813 91.6267 47.668 91.08C47.2546 90.5333 47.048 89.82 47.048 88.94C47.048 87.6333 47.5213 86.6133 48.468 85.88C49.4146 85.1333 50.648 84.76 52.168 84.76C53.7146 84.76 54.9613 85.1333 55.908 85.88C56.8546 86.6133 57.3613 87.64 57.428 88.96H53.728C53.7013 88.5067 53.5346 88.1533 53.228 87.9C52.9213 87.6333 52.528 87.5 52.048 87.5C51.6346 87.5 51.3013 87.6133 51.048 87.84C50.7946 88.0533 50.668 88.3667 50.668 88.78C50.668 89.2333 50.8813 89.5867 51.308 89.84C51.7346 90.0933 52.4013 90.3667 53.308 90.66C54.2146 90.9667 54.948 91.26 55.508 91.54C56.0813 91.82 56.5746 92.2267 56.988 92.76C57.4013 93.2933 57.608 93.98 57.608 94.82C57.608 95.62 57.4013 96.3467 56.988 97C56.588 97.6533 56.0013 98.1733 55.228 98.56C54.4546 98.9467 53.5413 99.14 52.488 99.14ZM70.2327 93.24C70.2327 93.56 70.2127 93.8933 70.1727 94.24H62.4327C62.486 94.9333 62.706 95.4667 63.0927 95.84C63.4927 96.2 63.9793 96.38 64.5527 96.38C65.406 96.38 65.9993 96.02 66.3327 95.3H69.9727C69.786 96.0333 69.446 96.6933 68.9527 97.28C68.4727 97.8667 67.866 98.3267 67.1327 98.66C66.3993 98.9933 65.5793 99.16 64.6727 99.16C63.5793 99.16 62.606 98.9267 61.7527 98.46C60.8993 97.9933 60.2327 97.3267 59.7527 96.46C59.2727 95.5933 59.0327 94.58 59.0327 93.42C59.0327 92.26 59.266 91.2467 59.7327 90.38C60.2127 89.5133 60.8793 88.8467 61.7327 88.38C62.586 87.9133 63.566 87.68 64.6727 87.68C65.7527 87.68 66.7127 87.9067 67.5527 88.36C68.3927 88.8133 69.046 89.46 69.5127 90.3C69.9927 91.14 70.2327 92.12 70.2327 93.24ZM66.7327 92.34C66.7327 91.7533 66.5327 91.2867 66.1327 90.94C65.7327 90.5933 65.2327 90.42 64.6327 90.42C64.0593 90.42 63.5727 90.5867 63.1727 90.92C62.786 91.2533 62.546 91.7267 62.4527 92.34H66.7327ZM71.3569 93.4C71.3569 92.2533 71.5702 91.2467 71.9969 90.38C72.4369 89.5133 73.0302 88.8467 73.7769 88.38C74.5235 87.9133 75.3569 87.68 76.2769 87.68C77.0635 87.68 77.7502 87.84 78.3369 88.16C78.9369 88.48 79.3969 88.9 79.7169 89.42V87.84H83.1369V99H79.7169V97.42C79.3835 97.94 78.9169 98.36 78.3169 98.68C77.7302 99 77.0435 99.16 76.2569 99.16C75.3502 99.16 74.5235 98.9267 73.7769 98.46C73.0302 97.98 72.4369 97.3067 71.9969 96.44C71.5702 95.56 71.3569 94.5467 71.3569 93.4ZM79.7169 93.42C79.7169 92.5667 79.4769 91.8933 78.9969 91.4C78.5302 90.9067 77.9569 90.66 77.2769 90.66C76.5969 90.66 76.0169 90.9067 75.5369 91.4C75.0702 91.88 74.8369 92.5467 74.8369 93.4C74.8369 94.2533 75.0702 94.9333 75.5369 95.44C76.0169 95.9333 76.5969 96.18 77.2769 96.18C77.9569 96.18 78.5302 95.9333 78.9969 95.44C79.4769 94.9467 79.7169 94.2733 79.7169 93.42ZM99.8511 87.72C101.238 87.72 102.338 88.14 103.151 88.98C103.978 89.82 104.391 90.9867 104.391 92.48V99H100.991V92.94C100.991 92.22 100.798 91.6667 100.411 91.28C100.038 90.88 99.5178 90.68 98.8511 90.68C98.1844 90.68 97.6578 90.88 97.2711 91.28C96.8978 91.6667 96.7111 92.22 96.7111 92.94V99H93.3111V92.94C93.3111 92.22 93.1178 91.6667 92.7311 91.28C92.3578 90.88 91.8378 90.68 91.1711 90.68C90.5044 90.68 89.9778 90.88 89.5911 91.28C89.2178 91.6667 89.0311 92.22 89.0311 92.94V99H85.6111V87.84H89.0311V89.24C89.3778 88.7733 89.8311 88.4067 90.3911 88.14C90.9511 87.86 91.5844 87.72 92.2911 87.72C93.1311 87.72 93.8778 87.9 94.5311 88.26C95.1978 88.62 95.7178 89.1333 96.0911 89.8C96.4778 89.1867 97.0044 88.6867 97.6711 88.3C98.3378 87.9133 99.0644 87.72 99.8511 87.72ZM110.203 84.2V99H106.783V84.2H110.203ZM123.201 93.24C123.201 93.56 123.181 93.8933 123.141 94.24H115.401C115.455 94.9333 115.675 95.4667 116.061 95.84C116.461 96.2 116.948 96.38 117.521 96.38C118.375 96.38 118.968 96.02 119.301 95.3H122.941C122.755 96.0333 122.415 96.6933 121.921 97.28C121.441 97.8667 120.835 98.3267 120.101 98.66C119.368 98.9933 118.548 99.16 117.641 99.16C116.548 99.16 115.575 98.9267 114.721 98.46C113.868 97.9933 113.201 97.3267 112.721 96.46C112.241 95.5933 112.001 94.58 112.001 93.42C112.001 92.26 112.235 91.2467 112.701 90.38C113.181 89.5133 113.848 88.8467 114.701 88.38C115.555 87.9133 116.535 87.68 117.641 87.68C118.721 87.68 119.681 87.9067 120.521 88.36C121.361 88.8133 122.015 89.46 122.481 90.3C122.961 91.14 123.201 92.12 123.201 93.24ZM119.701 92.34C119.701 91.7533 119.501 91.2867 119.101 90.94C118.701 90.5933 118.201 90.42 117.601 90.42C117.028 90.42 116.541 90.5867 116.141 90.92C115.755 91.2533 115.515 91.7267 115.421 92.34H119.701ZM129.546 99.16C128.572 99.16 127.706 98.9933 126.946 98.66C126.186 98.3267 125.586 97.8733 125.146 97.3C124.706 96.7133 124.459 96.06 124.406 95.34H127.786C127.826 95.7267 128.006 96.04 128.326 96.28C128.646 96.52 129.039 96.64 129.506 96.64C129.932 96.64 130.259 96.56 130.486 96.4C130.726 96.2267 130.846 96.0067 130.846 95.74C130.846 95.42 130.679 95.1867 130.346 95.04C130.012 94.88 129.472 94.7067 128.726 94.52C127.926 94.3333 127.259 94.14 126.726 93.94C126.192 93.7267 125.732 93.4 125.346 92.96C124.959 92.5067 124.766 91.9 124.766 91.14C124.766 90.5 124.939 89.92 125.286 89.4C125.646 88.8667 126.166 88.4467 126.846 88.14C127.539 87.8333 128.359 87.68 129.306 87.68C130.706 87.68 131.806 88.0267 132.606 88.72C133.419 89.4133 133.886 90.3333 134.006 91.48H130.846C130.792 91.0933 130.619 90.7867 130.326 90.56C130.046 90.3333 129.672 90.22 129.206 90.22C128.806 90.22 128.499 90.3 128.286 90.46C128.072 90.6067 127.966 90.8133 127.966 91.08C127.966 91.4 128.132 91.64 128.466 91.8C128.812 91.96 129.346 92.12 130.066 92.28C130.892 92.4933 131.566 92.7067 132.086 92.92C132.606 93.12 133.059 93.4533 133.446 93.92C133.846 94.3733 134.052 94.9867 134.066 95.76C134.066 96.4133 133.879 97 133.506 97.52C133.146 98.0267 132.619 98.4267 131.926 98.72C131.246 99.0133 130.452 99.16 129.546 99.16ZM140.698 99.16C139.725 99.16 138.858 98.9933 138.098 98.66C137.338 98.3267 136.738 97.8733 136.298 97.3C135.858 96.7133 135.611 96.06 135.558 95.34H138.938C138.978 95.7267 139.158 96.04 139.478 96.28C139.798 96.52 140.191 96.64 140.658 96.64C141.085 96.64 141.411 96.56 141.638 96.4C141.878 96.2267 141.998 96.0067 141.998 95.74C141.998 95.42 141.831 95.1867 141.498 95.04C141.165 94.88 140.625 94.7067 139.878 94.52C139.078 94.3333 138.411 94.14 137.878 93.94C137.345 93.7267 136.885 93.4 136.498 92.96C136.111 92.5067 135.918 91.9 135.918 91.14C135.918 90.5 136.091 89.92 136.438 89.4C136.798 88.8667 137.318 88.4467 137.998 88.14C138.691 87.8333 139.511 87.68 140.458 87.68C141.858 87.68 142.958 88.0267 143.758 88.72C144.571 89.4133 145.038 90.3333 145.158 91.48H141.998C141.945 91.0933 141.771 90.7867 141.478 90.56C141.198 90.3333 140.825 90.22 140.358 90.22C139.958 90.22 139.651 90.3 139.438 90.46C139.225 90.6067 139.118 90.8133 139.118 91.08C139.118 91.4 139.285 91.64 139.618 91.8C139.965 91.96 140.498 92.12 141.218 92.28C142.045 92.4933 142.718 92.7067 143.238 92.92C143.758 93.12 144.211 93.4533 144.598 93.92C144.998 94.3733 145.205 94.9867 145.218 95.76C145.218 96.4133 145.031 97 144.658 97.52C144.298 98.0267 143.771 98.4267 143.078 98.72C142.398 99.0133 141.605 99.16 140.698 99.16ZM160.289 96.52H155.049L154.209 99H150.629L155.709 84.96H159.669L164.749 99H161.129L160.289 96.52ZM159.409 93.88L157.669 88.74L155.949 93.88H159.409ZM165.615 93.42C165.615 92.26 165.848 91.2467 166.315 90.38C166.795 89.5133 167.455 88.8467 168.295 88.38C169.148 87.9133 170.121 87.68 171.215 87.68C172.615 87.68 173.781 88.0467 174.715 88.78C175.661 89.5133 176.281 90.5467 176.575 91.88H172.935C172.628 91.0267 172.035 90.6 171.155 90.6C170.528 90.6 170.028 90.8467 169.655 91.34C169.281 91.82 169.095 92.5133 169.095 93.42C169.095 94.3267 169.281 95.0267 169.655 95.52C170.028 96 170.528 96.24 171.155 96.24C172.035 96.24 172.628 95.8133 172.935 94.96H176.575C176.281 96.2667 175.661 97.2933 174.715 98.04C173.768 98.7867 172.601 99.16 171.215 99.16C170.121 99.16 169.148 98.9267 168.295 98.46C167.455 97.9933 166.795 97.3267 166.315 96.46C165.848 95.5933 165.615 94.58 165.615 93.42ZM177.724 93.42C177.724 92.26 177.957 91.2467 178.424 90.38C178.904 89.5133 179.564 88.8467 180.404 88.38C181.257 87.9133 182.231 87.68 183.324 87.68C184.724 87.68 185.891 88.0467 186.824 88.78C187.771 89.5133 188.391 90.5467 188.684 91.88H185.044C184.737 91.0267 184.144 90.6 183.264 90.6C182.637 90.6 182.137 90.8467 181.764 91.34C181.391 91.82 181.204 92.5133 181.204 93.42C181.204 94.3267 181.391 95.0267 181.764 95.52C182.137 96 182.637 96.24 183.264 96.24C184.144 96.24 184.737 95.8133 185.044 94.96H188.684C188.391 96.2667 187.771 97.2933 186.824 98.04C185.877 98.7867 184.711 99.16 183.324 99.16C182.231 99.16 181.257 98.9267 180.404 98.46C179.564 97.9933 178.904 97.3267 178.424 96.46C177.957 95.5933 177.724 94.58 177.724 93.42ZM201.033 93.24C201.033 93.56 201.013 93.8933 200.973 94.24H193.233C193.287 94.9333 193.507 95.4667 193.893 95.84C194.293 96.2 194.78 96.38 195.353 96.38C196.207 96.38 196.8 96.02 197.133 95.3H200.773C200.587 96.0333 200.247 96.6933 199.753 97.28C199.273 97.8667 198.667 98.3267 197.933 98.66C197.2 98.9933 196.38 99.16 195.473 99.16C194.38 99.16 193.407 98.9267 192.553 98.46C191.7 97.9933 191.033 97.3267 190.553 96.46C190.073 95.5933 189.833 94.58 189.833 93.42C189.833 92.26 190.067 91.2467 190.533 90.38C191.013 89.5133 191.68 88.8467 192.533 88.38C193.387 87.9133 194.367 87.68 195.473 87.68C196.553 87.68 197.513 87.9067 198.353 88.36C199.193 88.8133 199.847 89.46 200.313 90.3C200.793 91.14 201.033 92.12 201.033 93.24ZM197.533 92.34C197.533 91.7533 197.333 91.2867 196.933 90.94C196.533 90.5933 196.033 90.42 195.433 90.42C194.86 90.42 194.373 90.5867 193.973 90.92C193.587 91.2533 193.347 91.7267 193.253 92.34H197.533ZM207.378 99.16C206.404 99.16 205.538 98.9933 204.778 98.66C204.018 98.3267 203.418 97.8733 202.978 97.3C202.538 96.7133 202.291 96.06 202.238 95.34H205.618C205.658 95.7267 205.838 96.04 206.158 96.28C206.478 96.52 206.871 96.64 207.338 96.64C207.764 96.64 208.091 96.56 208.318 96.4C208.558 96.2267 208.678 96.0067 208.678 95.74C208.678 95.42 208.511 95.1867 208.178 95.04C207.844 94.88 207.304 94.7067 206.558 94.52C205.758 94.3333 205.091 94.14 204.558 93.94C204.024 93.7267 203.564 93.4 203.178 92.96C202.791 92.5067 202.598 91.9 202.598 91.14C202.598 90.5 202.771 89.92 203.118 89.4C203.478 88.8667 203.998 88.4467 204.678 88.14C205.371 87.8333 206.191 87.68 207.138 87.68C208.538 87.68 209.638 88.0267 210.438 88.72C211.251 89.4133 211.718 90.3333 211.838 91.48H208.678C208.624 91.0933 208.451 90.7867 208.158 90.56C207.878 90.3333 207.504 90.22 207.038 90.22C206.638 90.22 206.331 90.3 206.118 90.46C205.904 90.6067 205.798 90.8133 205.798 91.08C205.798 91.4 205.964 91.64 206.298 91.8C206.644 91.96 207.178 92.12 207.898 92.28C208.724 92.4933 209.398 92.7067 209.918 92.92C210.438 93.12 210.891 93.4533 211.278 93.92C211.678 94.3733 211.884 94.9867 211.898 95.76C211.898 96.4133 211.711 97 211.338 97.52C210.978 98.0267 210.451 98.4267 209.758 98.72C209.078 99.0133 208.284 99.16 207.378 99.16ZM218.53 99.16C217.557 99.16 216.69 98.9933 215.93 98.66C215.17 98.3267 214.57 97.8733 214.13 97.3C213.69 96.7133 213.443 96.06 213.39 95.34H216.77C216.81 95.7267 216.99 96.04 217.31 96.28C217.63 96.52 218.023 96.64 218.49 96.64C218.917 96.64 219.243 96.56 219.47 96.4C219.71 96.2267 219.83 96.0067 219.83 95.74C219.83 95.42 219.663 95.1867 219.33 95.04C218.997 94.88 218.457 94.7067 217.71 94.52C216.91 94.3333 216.243 94.14 215.71 93.94C215.177 93.7267 214.717 93.4 214.33 92.96C213.943 92.5067 213.75 91.9 213.75 91.14C213.75 90.5 213.923 89.92 214.27 89.4C214.63 88.8667 215.15 88.4467 215.83 88.14C216.523 87.8333 217.343 87.68 218.29 87.68C219.69 87.68 220.79 88.0267 221.59 88.72C222.403 89.4133 222.87 90.3333 222.99 91.48H219.83C219.777 91.0933 219.603 90.7867 219.31 90.56C219.03 90.3333 218.657 90.22 218.19 90.22C217.79 90.22 217.483 90.3 217.27 90.46C217.057 90.6067 216.95 90.8133 216.95 91.08C216.95 91.4 217.117 91.64 217.45 91.8C217.797 91.96 218.33 92.12 219.05 92.28C219.877 92.4933 220.55 92.7067 221.07 92.92C221.59 93.12 222.043 93.4533 222.43 93.92C222.83 94.3733 223.037 94.9867 223.05 95.76C223.05 96.4133 222.863 97 222.49 97.52C222.13 98.0267 221.603 98.4267 220.91 98.72C220.23 99.0133 219.437 99.16 218.53 99.16ZM226.862 86.68C226.262 86.68 225.769 86.5067 225.382 86.16C225.009 85.8 224.822 85.36 224.822 84.84C224.822 84.3067 225.009 83.8667 225.382 83.52C225.769 83.16 226.262 82.98 226.862 82.98C227.449 82.98 227.929 83.16 228.302 83.52C228.689 83.8667 228.882 84.3067 228.882 84.84C228.882 85.36 228.689 85.8 228.302 86.16C227.929 86.5067 227.449 86.68 226.862 86.68ZM228.562 87.84V99H225.142V87.84H228.562ZM234.461 89.42C234.781 88.9 235.241 88.48 235.841 88.16C236.441 87.84 237.127 87.68 237.901 87.68C238.821 87.68 239.654 87.9133 240.401 88.38C241.147 88.8467 241.734 89.5133 242.161 90.38C242.601 91.2467 242.821 92.2533 242.821 93.4C242.821 94.5467 242.601 95.56 242.161 96.44C241.734 97.3067 241.147 97.98 240.401 98.46C239.654 98.9267 238.821 99.16 237.901 99.16C237.114 99.16 236.427 99.0067 235.841 98.7C235.254 98.38 234.794 97.96 234.461 97.44V99H231.041V84.2H234.461V89.42ZM239.341 93.4C239.341 92.5467 239.101 91.88 238.621 91.4C238.154 90.9067 237.574 90.66 236.881 90.66C236.201 90.66 235.621 90.9067 235.141 91.4C234.674 91.8933 234.441 92.5667 234.441 93.42C234.441 94.2733 234.674 94.9467 235.141 95.44C235.621 95.9333 236.201 96.18 236.881 96.18C237.561 96.18 238.141 95.9333 238.621 95.44C239.101 94.9333 239.341 94.2533 239.341 93.4ZM246.335 86.68C245.735 86.68 245.242 86.5067 244.855 86.16C244.482 85.8 244.295 85.36 244.295 84.84C244.295 84.3067 244.482 83.8667 244.855 83.52C245.242 83.16 245.735 82.98 246.335 82.98C246.922 82.98 247.402 83.16 247.775 83.52C248.162 83.8667 248.355 84.3067 248.355 84.84C248.355 85.36 248.162 85.8 247.775 86.16C247.402 86.5067 246.922 86.68 246.335 86.68ZM248.035 87.84V99H244.615V87.84H248.035ZM253.933 84.2V99H250.513V84.2H253.933ZM258.132 86.68C257.532 86.68 257.039 86.5067 256.652 86.16C256.279 85.8 256.092 85.36 256.092 84.84C256.092 84.3067 256.279 83.8667 256.652 83.52C257.039 83.16 257.532 82.98 258.132 82.98C258.719 82.98 259.199 83.16 259.572 83.52C259.959 83.8667 260.152 84.3067 260.152 84.84C260.152 85.36 259.959 85.8 259.572 86.16C259.199 86.5067 258.719 86.68 258.132 86.68ZM259.832 87.84V99H256.412V87.84H259.832ZM268.53 96.1V99H266.79C265.55 99 264.584 98.7 263.89 98.1C263.197 97.4867 262.85 96.4933 262.85 95.12V90.68H261.49V87.84H262.85V85.12H266.27V87.84H268.51V90.68H266.27V95.16C266.27 95.4933 266.35 95.7333 266.51 95.88C266.67 96.0267 266.937 96.1 267.31 96.1H268.53ZM281.835 87.84L274.835 104.3H271.155L273.715 98.62L269.175 87.84H272.995L275.575 94.82L278.135 87.84H281.835Z" fill="white"/>
<path d="M115.739 26.36C116.715 26.568 117.499 27.056 118.091 27.824C118.683 28.576 118.979 29.44 118.979 30.416C118.979 31.824 118.483 32.944 117.491 33.776C116.515 34.592 115.147 35 113.387 35H105.539V18.152H113.123C114.835 18.152 116.171 18.544 117.131 19.328C118.107 20.112 118.595 21.176 118.595 22.52C118.595 23.512 118.331 24.336 117.803 24.992C117.291 25.648 116.603 26.104 115.739 26.36ZM109.643 24.968H112.331C113.003 24.968 113.515 24.824 113.867 24.536C114.235 24.232 114.419 23.792 114.419 23.216C114.419 22.64 114.235 22.2 113.867 21.896C113.515 21.592 113.003 21.44 112.331 21.44H109.643V24.968ZM112.667 31.688C113.355 31.688 113.883 31.536 114.251 31.232C114.635 30.912 114.827 30.456 114.827 29.864C114.827 29.272 114.627 28.808 114.227 28.472C113.843 28.136 113.307 27.968 112.619 27.968H109.643V31.688H112.667ZM125.463 21.44V24.848H130.959V28.016H125.463V31.712H131.679V35H121.359V18.152H131.679V21.44H125.463ZM145.527 23.48C145.223 22.92 144.783 22.496 144.207 22.208C143.647 21.904 142.983 21.752 142.215 21.752C140.887 21.752 139.823 22.192 139.023 23.072C138.223 23.936 137.823 25.096 137.823 26.552C137.823 28.104 138.239 29.32 139.071 30.2C139.919 31.064 141.079 31.496 142.551 31.496C143.559 31.496 144.407 31.24 145.095 30.728C145.799 30.216 146.311 29.48 146.631 28.52H141.423V25.496H150.351V29.312C150.047 30.336 149.527 31.288 148.791 32.168C148.071 33.048 147.151 33.76 146.031 34.304C144.911 34.848 143.647 35.12 142.239 35.12C140.575 35.12 139.087 34.76 137.775 34.04C136.479 33.304 135.463 32.288 134.727 30.992C134.007 29.696 133.647 28.216 133.647 26.552C133.647 24.888 134.007 23.408 134.727 22.112C135.463 20.8 136.479 19.784 137.775 19.064C139.071 18.328 140.551 17.96 142.215 17.96C144.231 17.96 145.927 18.448 147.303 19.424C148.695 20.4 149.615 21.752 150.063 23.48H145.527ZM156.729 18.152V35H152.625V18.152H156.729ZM174.775 35H170.671L163.807 24.608V35H159.703V18.152H163.807L170.671 28.592V18.152H174.775V35ZM192.822 35H188.718L181.854 24.608V35H177.75V18.152H181.854L188.718 28.592V18.152H192.822V35ZM199.901 21.44V24.848H205.397V28.016H199.901V31.712H206.117V35H195.797V18.152H206.117V21.44H199.901ZM217.373 35L213.869 28.64H212.885V35H208.781V18.152H215.669C216.997 18.152 218.125 18.384 219.053 18.848C219.997 19.312 220.701 19.952 221.165 20.768C221.629 21.568 221.861 22.464 221.861 23.456C221.861 24.576 221.541 25.576 220.901 26.456C220.277 27.336 219.349 27.96 218.117 28.328L222.005 35H217.373ZM212.885 25.736H215.429C216.181 25.736 216.741 25.552 217.109 25.184C217.493 24.816 217.685 24.296 217.685 23.624C217.685 22.984 217.493 22.48 217.109 22.112C216.741 21.744 216.181 21.56 215.429 21.56H212.885V25.736Z" fill="#10F1C2"/>
<path d="M24.3409 60.4682C24.8289 61.3134 25.0829 62.2014 25.1029 63.132C25.1149 64.0489 24.8431 64.954 24.2875 65.8476C23.7318 66.7411 22.8581 67.5319 21.6665 68.2199L19.4633 69.4919L22.4873 74.7296L18.9331 76.7816L10.5091 62.1908L16.2665 58.8668C17.4304 58.1948 18.5302 57.8278 19.5659 57.7656C20.6016 57.7034 21.5243 57.9097 22.3341 58.3844C23.144 58.859 23.8129 59.5536 24.3409 60.4682ZM19.7643 65.5492C20.4432 65.1572 20.857 64.7059 21.0055 64.1952C21.1541 63.6845 21.0604 63.1381 20.7244 62.5562C20.3884 61.9742 19.9621 61.6199 19.4455 61.4932C18.929 61.3665 18.3312 61.4991 17.6523 61.8911L15.7193 63.0071L17.8313 66.6652L19.7643 65.5492ZM39.3441 64.9974L33.1296 61.2414L32.2774 61.7334L35.4574 67.2414L31.9032 69.2934L23.4792 54.7026L29.4444 51.2586C30.5945 50.5946 31.6874 50.2315 32.723 50.1693C33.7726 50.0991 34.7022 50.3014 35.5121 50.7761C36.3139 51.2369 36.9628 51.8969 37.4588 52.756C38.0188 53.7259 38.2417 54.7519 38.1274 55.834C38.027 56.9081 37.5354 57.9125 36.6524 58.8472L43.3555 62.6814L39.3441 64.9974ZM30.8254 59.2185L33.0286 57.9465C33.6798 57.5705 34.0728 57.1311 34.2075 56.6284C34.356 56.1178 34.2623 55.5714 33.9263 54.9894C33.6063 54.4352 33.188 54.0947 32.6715 53.968C32.1688 53.8333 31.5918 53.954 30.9406 54.33L28.7374 55.602L30.8254 59.2185ZM52.4464 57.6267C51.0746 58.4187 49.6297 58.828 48.1116 58.8546C46.6074 58.8732 45.1878 58.5104 43.8528 57.7662C42.5237 57.0001 41.4472 55.9035 40.6232 54.4763C39.7992 53.0491 39.3917 51.5753 39.4008 50.0551C39.4238 48.5269 39.8194 47.1161 40.5876 45.8227C41.3697 44.5213 42.4466 43.4746 43.8184 42.6826C45.1902 41.8906 46.6282 41.4853 48.1324 41.4667C49.6505 41.4401 51.0632 41.8069 52.3704 42.5671C53.6915 43.3193 54.7641 44.4091 55.5881 45.8363C56.4121 47.2635 56.8235 48.7441 56.8224 50.2782C56.8133 51.7984 56.4247 53.2052 55.6564 54.4986C54.8882 55.792 53.8182 56.8347 52.4464 57.6267ZM50.5744 54.3843C51.7384 53.7123 52.4427 52.7883 52.6876 51.6124C52.9462 50.4284 52.7076 49.199 51.9716 47.9243C51.2276 46.6356 50.2822 45.8142 49.1356 45.4601C47.9947 45.0842 46.8424 45.2322 45.6784 45.9042C44.5006 46.5842 43.7784 47.5093 43.5117 48.6794C43.2589 49.8415 43.5085 51.0738 44.2605 52.3763C45.0045 53.6649 45.9469 54.4972 47.0877 54.8732C48.2344 55.2273 49.3966 55.0643 50.5744 54.3843Z" fill="white"/>
<path d="M285.765 50.0462C285.277 50.8914 284.635 51.5554 283.839 52.038C283.051 52.5069 282.131 52.724 281.079 52.6896C280.028 52.6551 278.906 52.2939 277.714 51.6059L275.511 50.3339L272.487 55.5716L268.933 53.5196L277.357 38.9288L283.114 42.2528C284.278 42.9248 285.146 43.6938 285.718 44.5596C286.289 45.4254 286.572 46.3277 286.566 47.2664C286.56 48.205 286.293 49.1316 285.765 50.0462ZM279.076 48.6232C279.755 49.0152 280.353 49.1479 280.869 49.0212C281.386 48.8945 281.812 48.5401 282.148 47.9582C282.484 47.3762 282.578 46.8299 282.429 46.3192C282.281 45.8085 281.867 45.3571 281.188 44.9651L279.255 43.8491L277.143 47.5072L279.076 48.6232ZM289.344 65.3039L289.489 58.044L288.637 57.552L285.457 63.0599L281.903 61.0079L290.327 46.4171L296.292 49.8611C297.442 50.5251 298.303 51.29 298.875 52.1559C299.46 53.0297 299.75 53.936 299.744 54.8746C299.746 55.7995 299.499 56.6914 299.003 57.5505C298.443 58.5205 297.665 59.2265 296.671 59.6686C295.691 60.1187 294.575 60.1951 293.324 59.8978L293.355 67.6199L289.344 65.3039ZM290.089 55.0371L292.292 56.3091C292.944 56.6851 293.521 56.8057 294.023 56.671C294.54 56.5443 294.966 56.19 295.302 55.608C295.622 55.0538 295.708 54.5213 295.559 54.0106C295.425 53.5079 295.032 53.0685 294.38 52.6925L292.177 51.4205L290.089 55.0371ZM302.278 72.9655C300.906 72.1735 299.829 71.1268 299.047 69.8254C298.279 68.532 297.884 67.1212 297.861 65.593C297.859 64.0589 298.271 62.5783 299.095 61.1511C299.919 59.7239 300.991 58.6341 302.313 57.8819C303.648 57.1377 305.067 56.7749 306.571 56.7935C308.089 56.8201 309.534 57.2294 310.906 58.0214C312.278 58.8134 313.348 59.8561 314.116 61.1495C314.898 62.4509 315.287 63.8577 315.282 65.3699C315.291 66.8901 314.884 68.3639 314.06 69.7911C313.236 71.2183 312.159 72.3149 310.83 73.081C309.509 73.8332 308.096 74.2 306.592 74.1814C305.088 74.1628 303.65 73.7575 302.278 72.9655ZM304.15 69.7231C305.314 70.3951 306.466 70.5432 307.607 70.1672C308.762 69.7992 309.707 68.9779 310.443 67.7031C311.187 66.4144 311.426 65.1851 311.159 64.015C310.914 62.839 310.21 61.915 309.046 61.243C307.868 60.563 306.706 60.4001 305.559 60.7542C304.427 61.1163 303.484 61.9486 302.732 63.2511C301.988 64.5397 301.739 65.772 301.983 66.948C302.25 68.1181 302.972 69.0431 304.15 69.7231Z" fill="white"/>
<defs>
<linearGradient id="paint0_linear_2061_3" x1="164" y1="0" x2="164" y2="568" gradientUnits="userSpaceOnUse">
<stop offset="0.929076" stop-color="#767676"/>
<stop offset="1" stop-color="white"/>
</linearGradient>
</defs>
</svg>
