<svg width="65" height="65" viewBox="0 0 65 65" fill="none" xmlns="http://www.w3.org/2000/svg">
<rect width="64.9706" height="64.9706" rx="32.4853" fill="#16BFA5" fill-opacity="0.25"/>
<rect x="8" y="8" width="48.9706" height="48.9706" rx="24.4853" fill="#16BFA5"/>
<path d="M22.5858 39.5563C21.8047 40.3374 21.8047 41.6037 22.5858 42.3848C23.3668 43.1658 24.6332 43.1658 25.4142 42.3848L22.5858 39.5563ZM42.9706 24C42.9706 22.8954 42.0751 22 40.9706 22L22.9706 22C21.866 22 20.9706 22.8954 20.9706 24C20.9706 25.1046 21.866 26 22.9706 26L38.9706 26L38.9706 42C38.9706 43.1046 39.866 44 40.9706 44C42.0751 44 42.9706 43.1046 42.9706 42L42.9706 24ZM25.4142 42.3848L42.3848 25.4142L39.5563 22.5858L22.5858 39.5563L25.4142 42.3848Z" fill="white"/>
</svg>
