<svg width="64" height="64" viewBox="0 0 64 64" fill="none" xmlns="http://www.w3.org/2000/svg">
<rect width="64" height="64" rx="32" fill="url(#paint0_linear_6_268)"/>
<path d="M22.904 40.068C23.72 39.42 24.092 39.12 24.02 39.168C26.372 37.224 28.22 35.628 29.564 34.38C30.932 33.132 32.084 31.824 33.02 30.456C33.956 29.088 34.424 27.756 34.424 26.46C34.424 25.476 34.196 24.708 33.74 24.156C33.284 23.604 32.6 23.328 31.688 23.328C30.776 23.328 30.056 23.676 29.528 24.372C29.024 25.044 28.772 26.004 28.772 27.252H22.832C22.88 25.212 23.312 23.508 24.128 22.14C24.968 20.772 26.06 19.764 27.404 19.116C28.772 18.468 30.284 18.144 31.94 18.144C34.796 18.144 36.944 18.876 38.384 20.34C39.848 21.804 40.58 23.712 40.58 26.064C40.58 28.632 39.704 31.02 37.952 33.228C36.2 35.412 33.968 37.548 31.256 39.636H40.976V44.64H22.904V40.068Z" fill="white"/>
<defs>
<linearGradient id="paint0_linear_6_268" x1="0" y1="32" x2="64" y2="32" gradientUnits="userSpaceOnUse">
<stop stop-color="#10F1C2"/>
<stop offset="1" stop-color="#008671"/>
</linearGradient>
</defs>
</svg>
