<svg width="64" height="64" viewBox="0 0 64 64" fill="none" xmlns="http://www.w3.org/2000/svg">
<rect width="64" height="64" rx="32" fill="url(#paint0_linear_6_274)"/>
<path d="M22.836 26.136C22.932 23.568 23.772 21.588 25.356 20.196C26.94 18.804 29.088 18.108 31.8 18.108C33.6 18.108 35.136 18.42 36.408 19.044C37.704 19.668 38.676 20.52 39.324 21.6C39.996 22.68 40.332 23.892 40.332 25.236C40.332 26.82 39.936 28.116 39.144 29.124C38.352 30.108 37.428 30.78 36.372 31.14V31.284C37.74 31.74 38.82 32.496 39.612 33.552C40.404 34.608 40.8 35.964 40.8 37.62C40.8 39.108 40.452 40.428 39.756 41.58C39.084 42.708 38.088 43.596 36.768 44.244C35.472 44.892 33.924 45.216 32.124 45.216C29.244 45.216 26.94 44.508 25.212 43.092C23.508 41.676 22.608 39.54 22.512 36.684H28.488C28.512 37.74 28.812 38.58 29.388 39.204C29.964 39.804 30.804 40.104 31.908 40.104C32.844 40.104 33.564 39.84 34.068 39.312C34.596 38.76 34.86 38.04 34.86 37.152C34.86 36 34.488 35.172 33.744 34.668C33.024 34.14 31.86 33.876 30.252 33.876H29.1V28.872H30.252C31.476 28.872 32.46 28.668 33.204 28.26C33.972 27.828 34.356 27.072 34.356 25.992C34.356 25.128 34.116 24.456 33.636 23.976C33.156 23.496 32.496 23.256 31.656 23.256C30.744 23.256 30.06 23.532 29.604 24.084C29.172 24.636 28.92 25.32 28.848 26.136H22.836Z" fill="white"/>
<defs>
<linearGradient id="paint0_linear_6_274" x1="0" y1="32" x2="64" y2="32" gradientUnits="userSpaceOnUse">
<stop stop-color="#10F1C2"/>
<stop offset="1" stop-color="#008671"/>
</linearGradient>
</defs>
</svg>
